<mxfile host="app.diagrams.net" modified="2021-02-01T16:57:11.936Z" agent="5.0 (Windows NT 10.0; Win64; x64) AppleWebKit/537.36 (KHTML, like Gecko) Chrome/88.0.4324.104 Safari/537.36" etag="Z0X94JD919_YSh3Ppc31" version="14.2.7" type="github">
  <diagram id="sZXv07klOQqyr8k8XmbO" name="Page-1">
    <mxGraphModel dx="1422" dy="1931" grid="1" gridSize="10" guides="1" tooltips="1" connect="1" arrows="1" fold="1" page="1" pageScale="1" pageWidth="827" pageHeight="1169" math="0" shadow="0">
      <root>
        <mxCell id="0" />
        <mxCell id="1" parent="0" />
        <mxCell id="QkCvLynNDtEKA9lKMgcu-20" value="Node.js Microservice Repository" style="rounded=1;whiteSpace=wrap;html=1;verticalAlign=top;" vertex="1" parent="1">
          <mxGeometry x="110" y="-1159" width="650" height="829" as="geometry" />
        </mxCell>
        <mxCell id="QkCvLynNDtEKA9lKMgcu-5" value="Jenkins CI" style="rounded=1;whiteSpace=wrap;html=1;verticalAlign=top;" vertex="1" parent="1">
          <mxGeometry x="880" y="-1159" width="910" height="810" as="geometry" />
        </mxCell>
        <mxCell id="QkCvLynNDtEKA9lKMgcu-3" value="Dockerfile" style="rounded=1;whiteSpace=wrap;html=1;verticalAlign=top;" vertex="1" parent="1">
          <mxGeometry x="130" y="-1099" width="610" height="759" as="geometry" />
        </mxCell>
        <mxCell id="QkCvLynNDtEKA9lKMgcu-4" value="" style="shape=image;html=1;verticalAlign=top;verticalLabelPosition=bottom;labelBackgroundColor=#ffffff;imageAspect=0;aspect=fixed;image=https://cdn4.iconfinder.com/data/icons/logos-and-brands/512/97_Docker_logo_logos-128.png" vertex="1" parent="1">
          <mxGeometry x="414" y="-1074" width="38" height="38" as="geometry" />
        </mxCell>
        <mxCell id="QkCvLynNDtEKA9lKMgcu-6" value="" style="shape=image;html=1;verticalAlign=top;verticalLabelPosition=bottom;labelBackgroundColor=#ffffff;imageAspect=0;aspect=fixed;image=https://cdn4.iconfinder.com/data/icons/logos-and-brands/512/233_Node_Js_logo-128.png" vertex="1" parent="1">
          <mxGeometry x="414" y="-1137" width="38" height="38" as="geometry" />
        </mxCell>
        <mxCell id="QkCvLynNDtEKA9lKMgcu-7" value="" style="shape=image;html=1;verticalAlign=top;verticalLabelPosition=bottom;labelBackgroundColor=#ffffff;imageAspect=0;aspect=fixed;image=https://cdn4.iconfinder.com/data/icons/logos-brands-5/24/jenkins-128.png" vertex="1" parent="1">
          <mxGeometry x="1316.5" y="-1130" width="40" height="40" as="geometry" />
        </mxCell>
        <mxCell id="QkCvLynNDtEKA9lKMgcu-14" style="edgeStyle=orthogonalEdgeStyle;rounded=0;orthogonalLoop=1;jettySize=auto;html=1;entryX=0;entryY=0.5;entryDx=0;entryDy=0;exitX=0.5;exitY=1;exitDx=0;exitDy=0;curved=1;strokeWidth=2;" edge="1" parent="1" source="QkCvLynNDtEKA9lKMgcu-8" target="QkCvLynNDtEKA9lKMgcu-12">
          <mxGeometry relative="1" as="geometry" />
        </mxCell>
        <mxCell id="QkCvLynNDtEKA9lKMgcu-8" value=".npmrc" style="rounded=1;whiteSpace=wrap;html=1;verticalAlign=top;" vertex="1" parent="1">
          <mxGeometry x="980" y="-950.5" width="240" height="160" as="geometry" />
        </mxCell>
        <mxCell id="QkCvLynNDtEKA9lKMgcu-9" value="" style="shape=image;verticalLabelPosition=bottom;labelBackgroundColor=#ffffff;verticalAlign=top;aspect=fixed;imageAspect=0;image=data:image/png,iVBORw0KGgoAAAANSUhEUgAAANgAAABOCAYAAABCH9izAAARYklEQVR4Ae1dPW4cOxJ+Z1HgMXYXkLHY5Bl+u+vEhm7gC/gCPoEC2fdwJPgOijQnmERzAkdysHAkRVwUi8X6in/d89PTMyMGQo+aZLFY/D5WkU12/7F4feH6X7dBx8A0GPijG3Yaw3a7drsSBjrBugfvEcyEGDgCgr1z61df3PPiyn2bsKFH6VFu7tzj4537Wmn37fq3e3r67Z7W3zsJKjaavl+/uwfqg6ff7uHH5l75xAl25X69+uRuZzP+5gb3gCBihU7zBHr66e5vElk/Vu7paWXbJuWQcJRPSCrpIPtxeR3JyYQFmSE/5qkDVoHGOv92plyh7qr+QT8tf+3uH8NgUtF9kckXm+V6iX5MiILsaD8uq3qEPgh1GUL5e2C7kZg7AoIlwBqpOAPhBAkGnfd1+dOCFNpOaZnn8mV/usdH6OiMYAI8sisCiIBGZTXd10/3gIRtgmlZAXwE4RAA/YBhvcDX5SoZWJgMuT7cjlgX2An19TaTwSbmYZlaFm1y4RaFgcwPRJGEgk+2XzYQxnokn70OEux28cX9Wly6b4vP7plCuVdf3NoIDSFeSKO82GgsJ+WfF+98HpMW7mHZxWsrW8PI5H6o+/nVZ7eMun0KYSeRkPWWehevP7nnzPOV7lljWd22TIMOJUBox1t5dYKt3D0Ss0mwC6egCwBZrgKhrt39+s7dlogcbYg6ETCBYIG8Uf8mwWrEQfn0u5IPbNbqA20rymWZUc+sjqTOMIjlRKJ82H6so/57FME8MZAUcb506ZaBgNxwBr4SkMCtoCeyKklUKU+0AsGE3HWjtjwYEYaIJSEk6pLqeeFYNyZ+vT7Vefs8PIJS+PSwtiM6ymwR7JbALSP1pgS7CWVv7tzD8poJmI3WpXYmBPOgB8C1CFYFbVpPAvZIdLVZazowimBel8TuQOCy9yI9pyRYJBRVhKC+cr9M2gV7uiIZqWzZS7QIViKkAhF1STuL6lJyL17zYCDkt3US4TAvy7p8+959+Pje/fnGyo6LDzBfeDKj+4Vb/OPS/efje/fhv5fu7xEoKgdl6Ohq07NQCUBM5X25FsEMmJQgt+uf7mHN4VmRyAV9JdyU+c3Q/Mrnk0HAEIxJxHKAoL7OGsHYLkM2axFM9U7rVNmP65V7TPsRbEH1Z30C6YpL7cdRHiwN+1SQeIkQghVDMQVuzUtYsKtyQgoJLYUcWv8AwRLyazmqA8tSOJl7rxrBrBzUF34PEIwBu3K3fvTUjvMgqa1YAcH8HIg8T0Ywu1ig5FWCmTJUfmMPxh5FZV84npPB3BCBZwgmNgJ9Yt42waLdE5vJ/RbBWNeG/DAYDRGISV4mqeiB190JNghiJJ+Ea2JkvtYJhvmIEOn8D0mCeem3zMHS+/K/ejQifk5eyZdfcSQdGhnR2OY3dWgY4b28BOTF0RIJJiHLMl1FrHU+AbpAACRoBHreZh4QVHYGZqNbWp4JacG7A8FeX7iSzTKdfHuYVHEw8OQs2CGdU2a2SORk6Wmb+f8dCcZzmZqHG55DsRLjCJbPm2QRpEyOIYJR3ZTncxbmGiKMNOTGZaLnKIEvLE4kpMu8xI+VXxW0y/RKAqvTfgkmIWMEbpNgoT0m/NqFYA2bSVga+y0lRs2LsczYnlheiEPlaraVPPl1R4KRQAa+hHF0VcCz18E0XXRgD2LTaBFEQrVcbpnIGKZqODrswVT3stzcWBaw26VLCKieT8NDlO/zDREsjLqjCFYjwJYejHTltgRv4OXb8DSbp3nvgXkEsAx6tAn9Fo+3kc0GCSZL81K39ONMBMNO3/R3yYPV5mGbyt5PfiIxklKMPf2VQCMAKrWlSLBsVJ1ez5JuL/PeRB5se2OmS/gEBvZKh/QYLf3nJDvNIerhSBhls9G4E6rVn5Om1SKAgUFvMETcTek8RDwGcnli0Ypnc4FmfjD7iTw9CkhDxYFO3abPYl3m0YOEc6VFgfnts007Ny/DoSOGrJvImJhgL6UTejs3Ad1LytsJNoE3eEkA6m1tD66dYJ1gZu9oJ0ybMJvapxOsE6wTbEIMdIJNaNxNR7uef7/e4xjs2QnWCdY92IQYOGKCzfcQGEe+9gNh3YHQemiM8l7s77jTI91BcX5eC/t4doKVdnuwgvMSLNueU3jo6/Ok9wVI+OwKtyNJOjxvQnLy8yh47hTyYx7sQPyd6Sx1oI7JdiV82O3rBr1ZnhKi9KxM9OI0zSuHJ1G+1xVtMaHnQLvM+bsTrNDJDCwCeXt7DIFKABY70RNirmP94g0q++o8uYC8/n8lhSFYaAee7C22N9jPp5nXD7B3zwjm90+CDgX7R1ueQdoeCMbbn+Km3bhZlzo73dGuXsnvoJfzY3iN5SUv7AY50M4LBRqBpA6GIuA8MOc61t8iWBnw2Abb7nwrF+ZNScBpd3AkplxfPAd3BuRJbVD6f2eC3S7wjBeTTXfT1wkmyrRDRDzyn8oWME1wlTBqvQLA5PUUARcINs+xftGx5MHonnorsT+GuUIwupd55nAGq3SfZIktqCx7rU4wssvOBJOOkqslzK4EszvdrWwGU+3UsQeLzEHiNQFY89Sx7kHLjl340bcCoEgwBp0HG8470tDL/y/eQkmw3bH+BsFAL+krfwXdos1wzgaeJqZHe4reSjB/Zs2Xr9gnvHQmDx1F9/O67oFgeB6LTy/rht75CGZABCAx95sECzva19/59CyM/gy0hKxSBwKZftOiAYCYD03KJlq+KtiUYKYMlYfFB9MGqddceXBQuQRakA15vQcLsn27QntLnorSS/dJH0yjweH+pkYw0oXTygNXJxg8N+H5kYaE/HamQxKsBjYmgQVy9mIaAFpJjoZKJcBWAIQEk0WSgx3rF3CO19cSQ3bul8pbEqX2Qjl+cFjf+ZeJWpLXiZ7KO5f/d/RgRDAM49ibGYLF16bJCWbML2+hKr02WxY5BDQpefX+VJ1BoPEAIQ8CHkzqM6ASshqCsRekl32OOnVcW2FDDyj1NK9lgnhvhe/l8O3SRRxqT/SUvh3WSxfbG/SwaTT40EqqhpBis77I0ey4HNQ0L9IVxKvkPYnhfYNhlXDtD1xagqVvjrKvDLB5S3Mw7bhct+3SJHxB72eBJnItqEL9KcEOeqxfbFAmGOnNJJO2KbkozRAM8ooX8ukw/8IzUqktpB4pKzbrBNuQYGo46dxzufIojM+B0ramoErT+/8lLBD5LbHP2U47hoglA57LvWEg+FF6o8WHc7HNDu3YONzdoa4jcBZNgvnPCuFDYPwdHwiftgF2Gz01nKytru0mH23LYV/65qX4/7ET3YfO6aoptu88fzcJtj9wnKfxun16vw5hoBPsCMKIoU7q6adL5E6wTjB4rnm6QD7WQagTrBOsE2xCDHSCTWjcYx1Vu16H89SdYJ1g3YNNiIGdCYY7OXSL1OFGiOMbjfWzSMen20vul3navjPBBESH2cY0j5GkjfaanhQQ3eYmGD+by7coiX79avtxWnt0gm0dHnSCHRKop1rXCILJLviwqbdybD/3YLTTHk87y0iBwKzL5o/y2V32+T17Fm2zELVed+tVB/zpWdjgHHe3SFvFg/EJbN4ILWlig2mupc24uCFXP+AHu0LgcGW29au2cTls+J1+98o0djokWQcJ9m3xyS3jKM/gKQE5J1h+3IQbpgRry06PwqR11+SP65R23aoj61yqK80j9Qpx5SRAqrfkm+raCBHjdiU5HcBEk3CyTTCWq6SyZQ8J2lOqa5BgaWNqn3vNCUbAEpCpN6uVp3rSNCtTZbBO7CFKZE91HvO/rTslz+YEw0OoVnYg1pt/uQ8f37sPb/9mVvHkmEfcYxi8hZDAt6V5EnuYYCgLTwQ0CUbkBG9HemT540A81eBxenJHEIyAnYREhY2+lgxsCLpHQCNvsQ6ekMCmpBiSrUC35cTQWD4Nw8STqO4I+mKoF9ul9TI5D0ewMYPBYieC1Y+KZITBENEfzpRzZHA99k3GM5N+gGC5lyiOxnRYb/EFiMMEYFK8c0v/5qkrt15c+nwM9DGyBdjoDYVc9ur1Ks75bD4ljNXXtusABKt0/CgPVinLbRvyYDsQLPFgowaDpq6lvjmve6MIpiN/8BhxpFdj1AlGxKIPm7/zXmwdw0Ym2JBsBj55Pfk4utZpO5gWPFIvVss7VDfKEk8o4a7IJFuk9yiN82u78tDX6i3y9nf1ix0lz4IeqQB8T+5IIlkIEULy/zoH25++U9tjTvkDBAvgiCHiJz+vssf6NQSTVwdoCMirfAI2IiGSgL2OlE9lSwcyqUWGGsuuID4XwS4y8utQ3awr61Z+1UFum1sP2vkJxsfyNYyLpBggmL7ticr+dPc/7tyjOX0spFPZOJ/Tvsnt/VLTBgk2v2GIYGM9U+/Y+fur9wH2wZETjL2BesTeedh5/ffx4+FICSbzni9Ow9HjN2YHfO+jFANHSrDeUWlH9f9PExOdYIXVtA7m0wTzMfZbJ1gnmNlJcowgPWWdOsE6wTrBJsRAJ9iExj3lkbfrvp8wuROsE6x7sAkxcAQE421Lz4VzZribYq5nYbR9KO6EyDqC9/2ZM1dZnv2MhCfvUfwukrBD5Obl2OSoCSagKu1zlLSprtmm27hHT8Fh9+6F+wIk3AuI72OXdPhKCRKYD03K/r8LJx/swzz1Nivh8biLbGcaJ1tkyJkxaa/c121SdmDhdKmrqiPa4gUMRkdAMOnA+vXQBGNyEcgJNCnQVE88SxUB5QlE38YCkiCoQrp+tQU30XJ99D0xSfcelL61tbweEcq1QD5SNun3eOduq56b68j1adWtNuufL8pGFdhVQZt+YVc7bZj9tbhy/JEI2i8YNuBCHn/8Pm4W5vNhAkaz4daUwQ4pH4URGVNcdTc6gQaIktimTrCVu0eANgkWDi56D8kkuF+uAqGu3f2awR4/jJfoYNvfAvk42X5wIe8biPY1q4/r6ASzGLX9oGmDHszPgyL47d5AJggd2Qgk9PMo3JxLR1TwmAkeA1ElvByTT9NI8UN7MP8JVArh1qvmt6xaBLulD+9JWLkpwW5C2Zs797C83uDk8AiCNWVjefKs6kkVQJ1gaguL09L9AYLRAkS6k10PIyoxmGB8pAQJlipA8vIzVConzc//twh2+fa9P3r/5xtb1nshmOfwnCQBTPNkMB7NKHkxBCPU7UNAzk86+DlJi2A+v3xqVUFNHxJ/WK98qBi9SuZNoF6fxjrh/Es/fTtCNujuB7biR893JVjFboNtS9t6Gv8PEIzPYsk5r3gNK35KjDrBvAeEELF0bkvllI22DcFKo0l2r0kw/r4yhWZMViVn+r+RiyCl3xRuZQSzCwW6MKAkMGWoPC6aVMHYAu+w7IzIqHesc1eCUR+zjCdz1qzc98a2UYfTyTuCYKkH08YpMcoE8+nGA+7fg9U6YJQHG+gwv8DgFxcInOJlpP0VMCPBZJFkuTrQR9ArOvl2UhsKnjiSSEBvya8e0LZ7tzmYDla1/juX+wMEk7kVzqPE0HgUvkEweL7F3my/IeKUHWFCvMJ8hNIzoBmCsRekVcEnmY/59BrAhkigti+3exeCgYeLAw/Ls20s3SO9WnWj3pU2xjox7+n/HiAYNTCQDMI8eeg75MH8ezhMOVpxFILlcn0IGhc7wgNoKE/pUncZYPvoEAZKeR5j5Y8iGC120FxwDMFScgroopex9ec2KOkePO+Q7EodPmyMK5ypd8MBplG3tMNfO8FGPG8Z6uhzSCfA1DwNt69IMAOmc7DDvtvQCdYJNnKkzRYFOrmGsVPxlLk33jex55E3IkScR7HTMLiGRXaeMoXNQqiZPXoIYduoVcYp9Bop04eorKuumo4se8IDVyfYCXfeaQxC50+iVj90gnWCDYd13UZb26hJsKen/zn6+/df/+x/3QYdA1tgoBNsC6P1AacPuGMx0AnWCdY904QY+D8Zj6wETzmVMQAAAABJRU5ErkJggg==;" vertex="1" parent="1">
          <mxGeometry x="991" y="-888.5" width="216" height="78" as="geometry" />
        </mxCell>
        <mxCell id="QkCvLynNDtEKA9lKMgcu-10" value="" style="shape=image;html=1;verticalAlign=top;verticalLabelPosition=bottom;labelBackgroundColor=#ffffff;imageAspect=0;aspect=fixed;image=https://cdn4.iconfinder.com/data/icons/vector-brand-logos/40/NPM-128.png" vertex="1" parent="1">
          <mxGeometry x="1070" y="-940.5" width="58" height="58" as="geometry" />
        </mxCell>
        <mxCell id="QkCvLynNDtEKA9lKMgcu-18" style="edgeStyle=orthogonalEdgeStyle;curved=1;rounded=0;orthogonalLoop=1;jettySize=auto;html=1;entryX=0.5;entryY=0;entryDx=0;entryDy=0;strokeWidth=2;" edge="1" parent="1" source="QkCvLynNDtEKA9lKMgcu-12" target="QkCvLynNDtEKA9lKMgcu-16">
          <mxGeometry relative="1" as="geometry" />
        </mxCell>
        <mxCell id="QkCvLynNDtEKA9lKMgcu-12" value="Node.js Microservice Repository" style="rounded=1;whiteSpace=wrap;html=1;verticalAlign=top;" vertex="1" parent="1">
          <mxGeometry x="1160" y="-699" width="120" height="90" as="geometry" />
        </mxCell>
        <mxCell id="QkCvLynNDtEKA9lKMgcu-13" value="" style="shape=image;html=1;verticalAlign=top;verticalLabelPosition=bottom;labelBackgroundColor=#ffffff;imageAspect=0;aspect=fixed;image=https://cdn4.iconfinder.com/data/icons/logos-and-brands/512/233_Node_Js_logo-128.png" vertex="1" parent="1">
          <mxGeometry x="1200" y="-659" width="38" height="38" as="geometry" />
        </mxCell>
        <mxCell id="QkCvLynNDtEKA9lKMgcu-19" style="edgeStyle=orthogonalEdgeStyle;curved=1;rounded=0;orthogonalLoop=1;jettySize=auto;html=1;strokeWidth=2;entryX=0.5;entryY=0;entryDx=0;entryDy=0;" edge="1" parent="1" source="QkCvLynNDtEKA9lKMgcu-15" target="QkCvLynNDtEKA9lKMgcu-16">
          <mxGeometry relative="1" as="geometry">
            <mxPoint x="1340" y="-560.5" as="targetPoint" />
          </mxGeometry>
        </mxCell>
        <mxCell id="QkCvLynNDtEKA9lKMgcu-15" value="Environment Variables&lt;br&gt;&lt;br&gt;NPM_REGISTRY = Artifactory URL&lt;br&gt;NPM_EMAIL = Artifactory Email&lt;br&gt;&lt;br&gt;Credential&lt;br&gt;NPM_TOKEN = Artifactory Token" style="rounded=1;whiteSpace=wrap;html=1;verticalAlign=top;" vertex="1" parent="1">
          <mxGeometry x="1340" y="-950.5" width="240" height="160" as="geometry" />
        </mxCell>
        <mxCell id="QkCvLynNDtEKA9lKMgcu-16" value="Docker Build" style="rounded=1;whiteSpace=wrap;html=1;verticalAlign=top;" vertex="1" parent="1">
          <mxGeometry x="890" y="-554.5" width="893" height="79" as="geometry" />
        </mxCell>
        <mxCell id="QkCvLynNDtEKA9lKMgcu-17" value="" style="shape=image;verticalLabelPosition=bottom;labelBackgroundColor=#ffffff;verticalAlign=top;aspect=fixed;imageAspect=0;image=data:image/png,iVBORw0KGgoAAAANSUhEUgAABDMAAAAXCAYAAAAWRQSIAAAZ3klEQVR4Ae1dO29cR7L2b1FgEnsXULIbrCFg4cSGFWxsMF8IThdODSjwbqSfoESBIAi4qXAhQJEUMFLARATk2EroyJEc9UVVdVV91Y8zLw7Jma2AOMPu0/Xqr6qr6/SZ+eLk9F659r+f35Srz7+Xz/b3a3n78x747EP2o6P5rHz4fFFe7EMvnefLZ9ePoX3Ie6g0X16wL129e3wrdn76+sdy/uQW/ffWcfa4vL3KGHbt68Sh+mPKfStxKPF3izE4MZ+YTwwkBhIDiYE7ioEvMkHIBCExkBhIDCQGEgOJgcRAYiAxkBhIDCQGEgOJgUPCQBYz7miV6ZBAlLJm0EsMJAYSA4mBxEBiIDGQGEgMJAYSA4mBm8RAFjOymJHHphIDiYHEQGIgMZAYSAwkBhIDiYHEQGIgMXBQGMhiRgL2oAB7k5W+5JWV5cRAYiAxkBhIDCQGEgOJgcRAYiAxcDcxkMWMLGZkMSMxkBhIDCQGEgOJgcRAYiAxkBhIDCQGEgMHhYEv9vIrFwmCgwJBVhrvZqXxbs3L/fLq/Y/l4/P7R4Htn54/Kp/ePyw/Zaw6ivm8Xl/5rvx28iDtkr6xRww8KOe/3PKvROX8Xuv8vjj5Z3mXNr1Wm15vXN9jnvfkrHz65aw8zfk/kvnPHOBgfO9UfrETTmb44ko/xfjp9SSZI6ed9a3hyLf+M49ryHg4kyjBmTdmv/xYPtHfRnNDc759ACa+x7K5PbQ5F3nFZ3ne19yYbz9no2LGuvx3w9l0bn54WD6uqXdLoy9miH5sy0WfoPselVc/7DExWjdGcQKFGyK3c4gJEBek3X2eY/0qG5KdNb4ArZNTtJnEH4wHrQzy876AmUrTxzR9NZaxjMifPrPMzf2qxyixpDbtn9r3Qbn88l/lD/3rChrav96m5d/vfi3X8XPKROfzZ/hpYPqp4qs35d+n98qLS/wJ9N+Nn4zxn+Tm++qY1hf0fxnj9D68VIxTsuDt9JPr3tfKUOXUn1OGcTam/tS0/nS7tPc8qF/s1/RVPVjeRidu458Kv1/enchcXk7nW/Xb/koYd/xuQkewG3/yGvC8hNUdczCd792v1f9BVrcH6MK+qzFT2s1mNbZEOzR2bONPjQUyJsYgo3tKfDzOcSxSOWvclFhPcUvuk3ilct4rJ2uuL/85+afHjC/b2LApDiUxv1MPGQe+3MaAEZYo5pjP7+yD35XfOC5/X/Znm4iZkU7TtsGaI3iSdXEJ3+4zDe53ttmm9KrPwh7C9mudD1bfYr3dZ0Rn97uxvSofWNPFPtJuPjyIDZILIP2eVhivPr+2LXWNr3nAweYAj8vbq9/LZ14LCQeyhq7MR5q1+fNnySFW5hM1RgT6g7ih8WAeG+Z+ztii+WRcOOYYYy8vSlPMkBsYMADoAMgdF1JzjrXBtalD/rfdT86Mzr2J/ruMvVfuThDeROcjvHfNpIv8eC9ztpL/bjgL8Qfjxkq+28z1KlnvWDHj/aPy0WK1yx7nmdql6MHt789qMeZBOX99Vs5XLfjBzk5LihnNolLnh/joJmE4f7SOBL6yKVmV9MVireurhRVNZGid0c/at0Sb7qHNL218aXMy2gBT+28n659MogQgLO6I3Q0+M50roEVJAhQzNEE44eRBigky5qK8/Zl84Fn5cHlRPjQb/3Zegryc1GgxZL7BWlUkIZqeUN0rIqPSHfmnJGGmE9sJ+Uu/2LW9l+6Dog+P/b78cfJd+c8G9m7tsvR/9LORPlu0BX8bjN8xB1vSZ7M+iYUfobjr9kDflHXHCpAQs356flbOXz8qy76pNiCaMd7EXBVjE/Bv7Tmxn8RGKE6144YYUnw9KJdDnFH/5MHgkB5iXfW+K9eRf81lm29Y5mNW4e/Fyb82isGr6MV+wMxwbraTe9Wex31mO/pRh11oiH99fO/7CZO98QXzuydnhfxf/Pd+ecX5hI8fyzaz84NyvhgbqP9hefpc+YGuXT6xfjHSZTymHIDWxl/L1aU89Dh5ecE5wMp8hNZ9K4C4fVflE9T/4eWzYY7R5QD1IUxc450XzcfIz8lPOP8jLDbrAI0ZFjM65+LB9ck/VdNC8uztcUEiwPZ95hx1Y/UJhGIHqWNiIvqovHpOx7iEnvdFAzgoqX3Mf9wuznVOJ1JInspL+IgDveK+2m9PZWdPBeribfqjc8cx0WZL+kz6miATbTAaE/njhoPBojKHjUajT+0LOKFggsdmA2ZAf04kHvIrC6ufgrv8Y9miLooLluv1mTxNfq28RAbqO38OT5oNy2MdxZ4RS8qH+6rerEtjs34uiE6fjCk9xL/NC88vbTgJe2flFW8S8Wn8ZkFb5uyh+6bpLz5gxyR5nmoSBjqqrEG3IQbj3Jg+15gk6JMz903HGcYZ8Xntg7kczldjhypvnJs4h8EWqh/YLPhFfWKo89j3SYwT38ANufuC8atz9PS1yuOyyzz7xpvkp7ljuzx/WM7pdaEnZ+X8iY8xuqqDXpv5VVrzYobM/WJsI9mD/VePIZ187SF7RNljP/VVu1Q7TfVjPeWJDBUxZsfFZ0UOXqz1BAIVDAZPJOxkBRcJfMMtY5c29/cK3XP17ll5e1XvmxUzTn1zzxuJd2/Kh3ePCycylGjUpywzOwifx/WYMG5cZmPxngE+T0X2kByxbZb0dR1czsifbaYJF9CL8qs8dFx438WMQTxtfAb9kXFa19mhjzRj2Q7UpmszXS1uq579NcYsjX+yzn2kGKD0wA9RNolBPs7nQ3mRzz4qr548tIKq6xl9k2M1PXSputGm5ymd7Hotm5PhuqLxx67g09Vnuwc55uvKv8poOds9jnsj+4nsD8or3cyN5sFkERvwqQzG1+xY+vfjzXd4Air+wIVBjSN6ZZwT/vWUkhYEV596eHH5a3n77qLoCSjdyJCffHj3plwFHjXOXF5I++UbebIbYsbY39kflRYUTLGYIfd43ENdVS4uul69KW/ttJnfr9jbtKCs49a7CmZ8bdZ1VX1G11PElKxbS77Ca+4T9Zl6JZyq//2yYp0nzDX+7/5SZRnuj0ifDfIJXU+pQFFfJzbZW1+o6/f/8sm0h+Wc4tEPlFeQ/7jdxnZX32xssio2qFzm4zC+yhNeG25lbny3l+2YcgBZM8n/6YHGi8uL8mJSqAh2mNyznE/Qmk0xTAoo8gDF54Z9X9frOgcYGwL/2j/yc16beN0b4weKGc48EqeBAE4DkjixL8Z4X9vntM05iA6cKPBFkO7F8fLZF5+xIlFmHO+8I11qV5np6sk+J9mmp/cxD3Aa0kWdPtKey2j686Qpf5Rx3c8iFwZELAxFezjNKDPICXrRWAdOXfwh4VHaNmccaAEjGhQ1eCBt+gx4Mhp67+iK46E/6uJzzrJr4sQFFuoT+ayP6fgY2tjh5orvqwnjVMYmWOIYtVF7jbTA/qAXjyF56gJBSez5E5GV2iKNzYsZ7neg/2jOqv6qQ8dXZW7sQPfHuVnQU2lsc2XceWEH7d/7WZOUD2QWPXtZke58A+8+pvbyK9KkzxA3QI5gswaPTgv4KEZ0kYc5jHNFPAX/UviQTYRtKDR5n80ByOgxk+SomISEieMhz0u1N3+WhMrXiklMIX2YVjNXVa44D8Qf7YpYFhvJ/VTMhNgE8ljstNj2fT0uPj7KTE8LuhMbtPhDAo/zRIu4J+owb5YwxE06jsXPSoeu/DRjVsyAjT1vZH5+XN7SpoQSGU40looIWjSpxYygl2ymdFNkR8zxHvrMG5q4AZklMnxvk+CIzquKGX0/JUZXVLgJGy+1NyWo4/lEG2/7mTFmeQxgMPhMuxkS2WKMUnlH8dz9l+VUv5/566gdxkSZJVazb6LfhhwMZAu0SV/yLbqKzxJtyYnQNyGfIB60rlAhFYqqnkfNeFF7Y4fGxmwbaxP+tDENcYfktzijG70oO+lg9uDYIPNq8YJjlMYUf41kdGprlJQvn06axQRvX7URUCzTfRabIDawT5qvuD9ZO99LxZJ2c0IyRP+mQqnxaIqXJifHBo89xMfjovNvj8KPYsfJ6aYnXZbw1PYRZmBtJpzUtcFxTWMU9zg+4l3ngK6dnwc/G8cGHN9/Rv4Vm5aruRwb5xO2nsoDXCoMmOzmV6Kz0lZfefqaHrTJiU9/uIL2wc9iZ/Qn87eF2OB0XUezDcyVtTUyh3bIWViOo8sB6imJn+mBxpvygdZa8uvhmgtzY+u4vlYqfruYTwDd6NtCd+THFhvCegJybOHnq4sZsAgyGOz/HlAz4BuIqnMIiDFhHS0WuklBx0Vl+2qlLVozEJuzOh2R2XUxHaZ66r29XB7wVB9d8JQfjdUFVK/xnvtffV2++fYv5T5MMtF1x0e7jRIf5XWv/M9fvyrffPtV+cuftU1l7/932Wsf2NBsAjLRnLpcUYc+WdB33OdPRYge8TE9LbhAQA385/Y3XUwHv9f6Ki39X6+GVRsLyY8tGGIjGmPy6rw29xg9lb2hi0lcR49o2f1zHfwendd6/fP98vdvvy5//+uX9qVMrZ7+f4MNw7/T9Hu9jfUzGbW9oTXwu81wHv3GbNbyhf8jZlt5lvymvdftLnMZ/49zBr5Jsigm+Kp9LX21meDcdCP7gw+cnP6p/O3br8s3X/3J5pL9jPFGMhF9px3l0lhKPMRXuT+MdTmGmAVdLM4OkzqNy6qv0I3zMSlmqI+Q7sSv8SWXWWUlfT1mmO2UDtujp9PpZ/cTXXhn1o6Hy3ucXSFjxXHJ0cKuvHmj0Xz3hPa1V6fjCQq+ZuJFBt9oSPKBJyNo0+AbipYH/c9Jhz5htc0O2cQ3UmFcs5E5GTyZGSUySmNsA9zc6DwTf02u4Am1zlvdfPkGScfpVeY0bDYHsVE2y2M8RX9ybFM74s7+h1hE+lq7yowbBWhj2zRj3c+rPiE2z30gyux+MJLF+I4KMypfZzOIhbWg6rSjXBbLSDf2a+qveYMVY3W+ZlcYQzK1dgptzt/j1ch+zivITrF3RF9t0Vz5hAZ/p4N+Z8YAc3WM+7PzVp+Y+hqN1Y3Gqg1J5RM3DO7DLX/9X6+86eEC7epiho1Re5Av1uKu+re+dy86in97zBK/liPnLiPfS/oOdaWis9pZbDjKJxgfsD4gDsa5JmHGfRuL5Y4N4ge4V71h7fW5FNnatS/SamIDYW4os+NZck7NuUeyOF+LTV0+ca/0NnP9SUayl8neyKVrs97HMarmK5pjtHbw/52Pt1V/nsaGOMbkUvsP9BvGB71/8XoMOYC+8gHrKRQdgt3RFhOfW8onQgwA/1ce1N/6cYxNgle936+9n3tfP+ZWihlyzF+dkYSaO+RyX68QKztdhKJD0L3iFN5uTmIJg/cZbQ54vcxtkBLZKTlSXRtaCKL6uQ8wEx117FTXmylm6HFVXCi65EtlpavZdYVeMMbmBNpGuFD769WDmc+V9VVaRJsCftvuY0FOkh02Wd2YIB+Ma9o12FM1217r4MVCcQJ2svmd6zCUlXh2yWezcBr+SdYGm4N5muprMqrODa2W9uloIdWxG1xbviBzxEwrzyQR5nlq73W7SyBt/x/JS/fAE56gf0vfx5N9vTgGWGC5looZMq/4yshsrhR7ogvxXkMfsLPIqLidjSUdo/xxPlYUM2weIg3mHQocYEv2zXi/x3e3MfsKJIts71A00tcSKKGJCfPoZMbSohwWedbJ5aDk4AP92Zdsep/PjbQhHU4qXsYNw4iGJh9Oq92Y9PycT91w2Eai2WSoLlxEwAJJz2OUyLhMdYMWTrZA8qV8sJjCGzov2gitnq/zoHkcnMwYxEYf09tm1tf6meEcfIbGtvdRm91rela+zdhuzYQ4N5NLcA7+AGNGsggd8icv5uiGxXh0NkP/9/fZZQMFvon6kW7Bh2Gtw/uGn9u4MuBhempfO2bOD+3CcZJen+HYIPHcYzPmdDJnGhu4qGFFUPn+nVBEq0XDeeFt4mtkj5cX5YpeAzG/XMZpjE1O1/28ys4nmx7X19keyxPcaypmyOss6K9LvuoyMuaGG6vxyYyN8+YpvnRtizkCYmO8Zire+jlp/TzSGscG87kqJ9Fwf0S/w8+RN/FxzEIsqDR7m4EO1U9N9jYmVRrEI+T+S3HNbA58rA2LGaCH+jNdMTZBHs62ov6wjsf5C/YkXVpaYewx5ABazABbDgoNwS40F0Ofo9dU0IeJpvqxrNexOBnvHeUAMTaBjIaHsZ938tr94TszRgQrIKxaSSBUp5IAb0BmgKjDyH3WBwyDc0DCy47XLnI8bu6sc8Vm/Gcyu3OZfOpEYSMigUeDCt1rlU++z5+AomxGszq6j5nYHOyFdIafJ0FmeC9vXFxGksteOWiCAffV+eC5Cc4uclO7Jy5OVzbGioVGR7Nr076g84z/zP4ml9nGMWR9zI/mvcq5oH+wpdFsfaPXh+VW+qgfP4mq7xlqO/uPLqSCU8aZ8ZvpsBC0lTZcp/ozfnXOxH8U56p/HAv6mozaFv0s4AxkUbpbXxu+iIf2s+Fc+TdjXQaPBdqGtKZzqnT5GvWXMTq3PX3h4/OrfFdegy/VL/OssXo8VyMeozadx3oNthJsiN/Px7LOEDPIhmE9aPyt05V4Nr7DNMMagbYkWXRtcvk7vmGe/D7nr+++02mMWMygjUp7OoMX6rAZd5qjRZz4eDsl73Hh16PW+CSD7rfNDx0bpQ0NPP3sixmaaLgsnnxgW/wc+ISiQbPJABtSUuKy9nxd18hL7c39wX6SHEWdkH9NnsKGruer9E9ONTEd8/f7tuuPfkZ4rDGU8Vt9nj9jriC8ptgM/tauM+J/bWzu9ED+dd3XMVFm0DvEE2iH+Y58ov/rl3l6TqAxD2iNeIzahjzBvrUfY7OerJE4A7GB6FsOu14xg4pB9OXI6/5aln7PDhU14hd+Dr4zg30Li4BgHy7ctTFBvydDj3z3p5PYD8NpKvmVIfcj96Hg58DP2m3T0/rVIF6RLuC/GA9sw8JFT9dpHhNcRsbZYGM1fG1niBW06bqfATN68hhzYPysfm6841j0k87PCY+6Nk5iA46nzwHnjGfN1aIP+rhZ+5Itog70sI2+R5D9qY1J4H9hXd+lmDGKA7Wts2ErD9pU56S9R9tXXo8gBzAfhvketbW2GPjcOHeoseH//MGKYs/8vtIe+Xt7j47V6zZ+vvpkRgWnVMXOylMEXHVErZgFUE/6AiiJln1pZE1GrWKmC+E2TqkJgD9lMNmGcrkTm3ymJ/U5HQtCPFGxz4oUDY+lMbEPgNeCbPY/8dLAOLsH26vNxe6uN4GIdNe5bOUa9YWkqOpsNgA+RDO0hw3JejqP+GvyojIrD5PLbOMYoj69n66GiwX9A+9mzBI96dNFB/UU3CDvaP/6JbRkp4kOrGu1OeqjCasGhfa6Wl7CAPDXRR19QG2wxB/mH08MtPLs9H/LH3EFfXJ6KG4septFX+Z+9atAa50vuKoJc7VZ4N8UR1H/dm78RBdiBz5bjJI2wanoSbTUH5yH+8FyG/Cg2EH6qy3of+LL/7cxG/y89SfFTC36ov1Fzt7+rX+wfXCOW1vyPOm64TZp6bjuqCccLa0/zdoWLkbFDKLFCby+BgGJvRUm8Lsk2o0M/++Jvo2BzbptMjiO1838vosZVS8potAmw1/zoKcwvkmq8lh/1YU3MIMxrC+2t5s6oef0aY6aTQ7TxnE1seJfbsE5pc/7L2YglhFrvm7IFzerP3q7rrdYANG2eq149zFNDoZre/PZx/TxXGWJvtD74PJ60sSTGifdn6MvMq8mZk3bGl1ETpKvXU+jzG5/anf+Elvr/7A2ydxJe4yZNbZh3BvIRDHBfsqZ4kb3ZbODYoYWNM1nEMvN614cB8T/3CfkfytwWgyKdOKGwX2INxfG233Z4oxtelq/IhoYq8TXZvEv8K9+Lzq0MUPldhl5vmkMxEFq22aTI9hp48Lo/4ilmANDH3+pvOIQ2jVHqphx/1Of1jGwbtZf5xj7I8gIOcinwL/xQcCoYF5501X5A124f3g6V9ftNgeo40hH9zmhO2qLc9DbjGlMY8M/Bn6veve0zJZoszo3raytXOGn2b/svyPrYHIA82GY61FbmH94lc3iA/lmGweIprR9/Ni/QmKnO3idxrXeY02IGcQr5E3b+flaxYw44WCc1hBH+T85iy+K/922OPy5jwnLLekzWRgSW7c0H3cibvVxhpICW5jvhIzHPz+zZIV8c7+J9PHb9nbiGx1X3d+vmdyOTvvBSrc28mYgc5/Vczz7WVaap82PS6/mt9v8W9HiANcUOvnSvrazb3sdJv3MJ7adt8wBdosv29odx23s5y8vyhcvDjCgodL7/9wHhf3zvH0wHauOXcJ2k/i3SnEmiMeKr1306p7khFMI+40JHW99ypSFXP/CVfty0Pj6yS5zfrNj5YlufL+1PjlpnoDerFz7wLb/ykR7wubwdduHvfrTrKuf5F6jHLY24pNk+XzYBd27h8PDLGbIlzD/Mfr+m5vM4Q6IV7em32A+0Z8KUb9edTrkGmPKXuZKT3BmDrCfdXQbP5cTXXkyYy+Av+sOmfLtxxHTrmnXxEBiIDGQGEgMJAYSA4mBxEBiIDFwExjIYkYWM+DJYzrdTThd8kicJQYSA4mBxEBiIDGQGEgMJAYSA4mB3TCQxYwsZmQxIzGQGEgMJAYSA4mBxEBiIDGQGEgMJAYSAweFgSxmJGAPCrBZvdytepn2S/slBhIDiYHEQGIgMZAYSAwkBhIDx4CBLGZkMSOLGYmBxEBiIDGQGEgMJAYSA4mBxEBiIDGQGDgoDGQxIwF7UIA9hgpi6pCV8MRAYiAxkBhIDCQGEgOJgcRAYiAxsBsG/h/lp9hEXiqMowAAAABJRU5ErkJggg==;" vertex="1" parent="1">
          <mxGeometry x="903" y="-509.5" width="875" height="18.72" as="geometry" />
        </mxCell>
        <mxCell id="QkCvLynNDtEKA9lKMgcu-21" value="" style="triangle;whiteSpace=wrap;html=1;fillColor=#d5e8d4;strokeColor=#82b366;" vertex="1" parent="1">
          <mxGeometry x="790" y="-800" width="60" height="80" as="geometry" />
        </mxCell>
        <mxCell id="QkCvLynNDtEKA9lKMgcu-22" value=".npmrc file injected into repository during build of production image" style="text;html=1;strokeColor=none;fillColor=none;align=left;verticalAlign=middle;whiteSpace=wrap;rounded=0;" vertex="1" parent="1">
          <mxGeometry x="920" y="-720" width="202" height="20" as="geometry" />
        </mxCell>
        <mxCell id="QkCvLynNDtEKA9lKMgcu-23" value="2" style="ellipse;whiteSpace=wrap;html=1;aspect=fixed;strokeWidth=2;fontFamily=Tahoma;spacingBottom=4;spacingRight=2;strokeColor=#d3d3d3;align=center;" vertex="1" parent="1">
          <mxGeometry x="991" y="-749" width="20" height="20" as="geometry" />
        </mxCell>
        <mxCell id="QkCvLynNDtEKA9lKMgcu-24" value="NPM Artifactory config for .npmrc stored in Jenkins environment variables and credentials" style="text;html=1;strokeColor=none;fillColor=none;align=left;verticalAlign=middle;whiteSpace=wrap;rounded=0;" vertex="1" parent="1">
          <mxGeometry x="1460" y="-710" width="202" height="20" as="geometry" />
        </mxCell>
        <mxCell id="QkCvLynNDtEKA9lKMgcu-25" value="3" style="ellipse;whiteSpace=wrap;html=1;aspect=fixed;strokeWidth=2;fontFamily=Tahoma;spacingBottom=4;spacingRight=2;strokeColor=#d3d3d3;align=center;" vertex="1" parent="1">
          <mxGeometry x="1530" y="-740" width="20" height="20" as="geometry" />
        </mxCell>
        <mxCell id="QkCvLynNDtEKA9lKMgcu-26" value="4" style="ellipse;whiteSpace=wrap;html=1;aspect=fixed;strokeWidth=2;fontFamily=Tahoma;spacingBottom=4;spacingRight=2;strokeColor=#d3d3d3;align=center;" vertex="1" parent="1">
          <mxGeometry x="1440" y="-594" width="20" height="20" as="geometry" />
        </mxCell>
        <mxCell id="QkCvLynNDtEKA9lKMgcu-27" value="Docker build phase supplied with Artifactory values.&amp;nbsp; When Dockerfile is created it substitutes the values in the .npmrc file" style="text;html=1;strokeColor=none;fillColor=none;align=left;verticalAlign=middle;whiteSpace=wrap;rounded=0;" vertex="1" parent="1">
          <mxGeometry x="1470" y="-594" width="202" height="20" as="geometry" />
        </mxCell>
        <mxCell id="QkCvLynNDtEKA9lKMgcu-28" value="1" style="ellipse;whiteSpace=wrap;html=1;aspect=fixed;strokeWidth=2;fontFamily=Tahoma;spacingBottom=4;spacingRight=2;strokeColor=#d3d3d3;align=center;" vertex="1" parent="1">
          <mxGeometry x="280" y="-410" width="20" height="20" as="geometry" />
        </mxCell>
        <mxCell id="QkCvLynNDtEKA9lKMgcu-30" value="Dockerfile updated to accept NPM build arguments and copy .npmrc file into production image if it exists locally.&lt;br&gt;&lt;br&gt;It is then deleted after package install so does not exist in final image" style="text;html=1;strokeColor=none;fillColor=none;align=left;verticalAlign=middle;whiteSpace=wrap;rounded=0;" vertex="1" parent="1">
          <mxGeometry x="310" y="-400" width="360" height="20" as="geometry" />
        </mxCell>
        <mxCell id="QkCvLynNDtEKA9lKMgcu-31" value="" style="shape=image;verticalLabelPosition=bottom;labelBackgroundColor=#ffffff;verticalAlign=top;aspect=fixed;imageAspect=0;image=data:image/png,iVBORw0KGgoAAAANSUhEUgAAAh0AAAJSCAYAAABnbndeAAAgAElEQVR4Aey9v28ky5EuOn8LjWni6ADE055jaMSLozE0AwoS8ISLC1CCIG+klbmDXWcfBBwsZsbYu8961l6sM4ZA0H6QoQdabEPOXYMOG9i1Z52mNRbHyofIyMiMiMys/sHuYjf7M4gqZmVmREZ8mfFVZHXVs8nxUdjc34/CH/7x9+G/bbTPTeq3fF///R//NfzzH360nG2++33453/8P5eru8u2+R//uPyYd3kcG9Ttv/3hn8P/9T+Wx83m5hJkwpbAADDw9DDwDE4tTiWi8a//mv7+5wrk6amQjuMfhT/8z38Of/iu2OSg8UF+XQUHGyQ7B2132HH/b2DgQ/iwgwGQjo5hsOiDeAADwAAwAAwAA5vFAEgHSAcYOTAADAADwAAwMAoGQDoAtFGAhruFzd4twJ6wJzAADOwjBkA6QDpAOoABYAAYAAaAgVEwANIBoI0CtH1k5NAZd5LAADAADGwWAx3ScRpmz9+GL5NTFZBSGZXHa2fhgwrYF5NUHq+/CVN1reW0i9nncH9f/ubT75Wsj+GWrs0+1mXSZn4V3icZ76efTF/36RqXfwrX75LR3l2FOV2jo/SjjreXPeN+H67nn4O/TmOIel/eWPn3N+GCdPNyhsYj13ybeyXXyEkyjlk3GTPZmsZt7dkel/hgmbrRh1q+sn/Lv6Us+fJe+WEBNkrbtt7D18key8nKuBHbG72S3suOM/tN/EK6J98shTE1Vm3npm6qrtEZ5cPYgH1gH2DgsTHQIR3n4W5yGqaTcw6ecWEj0iH/n4Tp5G24m5xEUhAJx8SSkEUDo4CXg3hcsFWguLwJ8+nHcD3XCzgFAfmfF3MJlr0gG8vnKgCTHBNEqE8ld2ABjwHKBADVloKEuZaAbeRxEOMxs/55/A25lTxno3g9joWD7FwF2jhuQ+L8RCvyM3Fq6GB9SG3a9rf1lKyoM7VRtlooR7Vfqy7bIxPNTh8y7srOqX68PrtxeOnoRv4nX+TxSr3ldDH2c32InqZOZ0yoI3bHEVgABnYVA03ScTHhTAWRiVle4DTpOAofJm9SJoTKF2c2vAFoMS1BtwRBqncxYyJg61DgkqDHd/MS6HtBlssVeaEFfU3SwVmLIn8igYbssxTpoHGlzEi6Ay7jryeID4b1GCWgpePlVZgn4lPXrfsXfxSd+nWkrj6uImOyCukgH82uYmaJM2HK5rGfkh3T9qNxlMyZIpIxiMs13ReP19s5jlF8W+FlgY2iLC1DfLSgXZ5jPkvF80JnsbQPcL68XWEr2AoY2A0MNEjHaZjlrMW52mLRpIMzHUxIqI5kOc5562UJEmIIhVmsP4ZbIQYmmGvSwYuxBJ0YOFQKWxZpCYx0jHWrILLKHbiVaYI16anlCzky8pys3EYHqQIKHwyNvVKQ4jIJbHTkvmTc1fYO6Si2VX1Ixmj5SWltsbidG7sKslXbiIVCSIudvczSp7WV2INsSXWUfYVMKPm2rbRJpMX4r/im0ln6i7oreX57xdm+1U/xM+n+OdxOPVFeQg/RB0e1PQu7tfCGMuBibAw0SEePaBDpKM9tyNbK5FiTDnIgERKb+Th58TK8ev1NOFGLIC2uJVCrO9Mu0eBFWNroQJmDrOqfDFnKE5GpgkgJXMsYvgQoHdgWZDoUGRGSZGQJ+XDbM0UWT4oSjMok4TKlS9yW+l6Nu9Q1MpWdqA9ty149XR595/TV1+vzhp0TuRB/Zts4HxkfagIRM2JETtT447jU/2Jb5QNPulp2zvZwutTjcvaNY9Kkw15fxm7sU2WvVXVQvl2oL+qClAADwMDIGKhIh30glEkGZzR0poMyGkIszsJdftaDFtnlSUcONGrQcWHWQSI/SEkLcVrQYzApRKUEJrvI6/K4ZUNbEOZuUy3uSofuYi0BQI7SxhAlpYOqF4Ob6C/t8rHWwwdDPRbWT4KrHEkuk6sLeZCU5Dtb+qBL9s5BNuujxuDKon+MDft1ix3r8ZVrrr2yGdUp41b+TzpxgNbjp77U/z2/qDFZO5MMTYblvGCtqzf1Ge3dJx3dbTivj37OiMawsr2dTVX/g/qjHgIQMAAMbBkDjnRoYsELFz27wVkNfY23V+TXLfwgqfzSpSYdrYWOA4ZfHOvA0g46FFjKr1tKHdufKX93FW6rBwNXCIbRERzQbmfq4VQq7wU3E0A5oDUDfAxWNrDZYFgHtHg9BiMVZGOQvgmVfgMg6pGOSC4cSSoyrZ3ZvylgNzMgK9jZ2EyTDvZ5JqrKZnoMUccctBfLreysbeV0ieOMcjtELV7rkQ7W3/q/YTMjs9WmZXuUtdYYlAEXwMDuYcCRDr9VQgqfhbv4zIYmHak8ZzgSCcnbL5IF6Q+4STpad3V5EaYFWi3oaoHnQCN3peW5BSovizwv4PaucXFQ8qC1QS2Nj/Q2d8hJz6y7qheJQgo2qo0NpmosOdPDATjLyXe/NC5FWKJdOkFRBVQmFVqO6iNtXdxX9tb16Vz5Qx7yNKSjHqe1fwMfzmbGh2lsYoOWzfhXT2oszjeChwozys7Z506XWN6yr9Mr6hftYMcvsnP/TZs5Pxt7NuylfFr6RT3YAhgABnYTA4507KaSAA/8AgwAA8AAMAAM7D8GQDrUnWLr7pfvqtWds6qPCbD/EwA+hA+BAWAAGBgPAyAdIBF4cAoYAAaAAWAAGBgFAyAdANooQMOdxHh3ErA1bA0MAAO7igGQDpAOkA5gABgABoABYGAUDIB0AGijAG1XWTf0wh0hMAAMAAPjYQCkA6QDpAMYAAaAAWAAGBgFAyAdANooQMOdxHh3ErA1bA0MAAO7ioEm6fjm578Mv/nuKEz+5sfhb3/34/DNYGD+YfjN3/02/EP++2n4yWD9dcHwVfjF70TOtmSsq9tRIJv97c+/QgDfiu/X98uuTjzoBZ8CA8DAIWJgmHR899PwD7/64YJASqRDkQBqo//feBBy8jbe/3oTAaRjPbsd4qTDmIEVYAAYOFQMONLhsxYpszCY7fAkgDMSMVNChCCSENcPZVAcMfnJr37L2ZXjo0DnkjmpswdeHoFXZ0F+WzIOJOdXP64zJDGD89Pwm5g5+Wn4xc9/GeWJzm35Pwy/+d2Pwy+ybr8Mv/iblA3KWR7RO13bEUJ0qODGuLGwAwPAADCwWxhwpIOV+8mvOGgud/dekwAK2pEsuO0Z6k8yJ5pkTI5LH1amIzAxiJe6AqYsL15XbSK5KWQmy8/liaz86od5e6Qvn+QWQpP7SsTCttstJ4udcIRfgAFgABgABh4TAw3SQYGYt0sokMrdvyj5g29fhFevX4RvvhbH9UlADMw+CyDbNXrrJp8nEuDaWB28PGpjMwuZADjSk59RyeWlLbf5P1RWRLIWQlqc3Kwz2yHLRHZjwXac4AZHmVM4AgvAADBwKBiwpENvhajAr7c4FpMOJg5EFIYDMdVjciOZFd4msQSidoQL/nFrxbbJcjO5SICm8dFWUS5vkQ7bV5Hv5IJ0gFyAYAIDwAAwAAyshAFLOqLx+NmFbxrBvARgzUptMKaAHwM79UXB3T27ofugur/5TuRxn7G9ZEOazrTyqD+7vULXU3YikwvuO9fL5Z50fBWJkmwBaV31FlAsb5COdjttK5xbm8IesAcwAAwAA4eEgZp0mICsfpXSJAAEFg7y8uBnJhypfiQRKmtitkoiKSnPSbDhOVOS+8ukxcmhPvMDrvZazsyk/nNfQmbMGDmzQXpyuyH5yh6OdFg79LIlmFyHNLkwVuAdGAAGgAGLgZp0dMmFbbgXhszkYg91f0p+wFhWSj/uxdyCT+FTYAAYWAMDIB1rGA1BASQOGAAGgAFgABhYHQNPm3SAUICJAwPAADAADAADO4MBkA6AcWfAiLuG1e8aYDPYDBgABvYJAyAdIB0gHcAAMAAMAAPAwCgYAOkA0EYB2j4xceiKO0dgABgABraDAZAOkA6QDmAAGAAGgAFgYBQMgHSsCrTLm3B/fxMuVmj3fvop3M+vwvsV2oBlb4dl75NdCTe3l7DDPvkMugKvwMAwBhqk4zx8ef5W/Z2nAHsaZrp8chY+5CBqr81S+YfJm/DlubQ/CheTt+GLaTes3OT4+3A9/xSu3y2qx9djcL//HO7pb/ZxA6ytIX+DpONi9nmFoEK6pLENkp6P4Xbw+nK2lIlDNp1Pv9+ALY/ChGy3Eb+4MUSfsG02pmvGtpO1cvka/lDjISx74pFxLrZ8dxXmgvt4dKQ4Xde2yX2kdkWGxpm2KY3DzivBLx3jnNM6DJFsGp+/HnUkvXvyj0JfZ3+trBmVbkqu6U/Kk+2LPZT/sp2dfRdi4izcPX8b7iYnZh7x+ihr7ZswXdiPxmJjbVqpve7Lnmu7FDvYOrI+jH4kH4ivNjTe0cdw4Hq3Scfk1EwOdgoRCyEQJ2E6kUmkzwmYNMF4AtGkupucp8l0GmaT8zDbGulQi8PGnLq9iU02lUV7NdAPj5MWDB1cVuu7Xlg22h8t6BIoN+ajovNGdd2YfsP+qvxjgm8ruDX6cwtxDLTKzmSX28uP4VYt1sZWMdCKrB7mSe6nMJ9LvRq/1Ody/uW+9M1EaduTz8QiY1vrTOdqbJVNj2t5kQArcp5tFvv6FObZfrW9qW7WYwmc0Do4O6b1T9+ona94A1ZwzuPr26kev2+73P/rrU/L9b22jg7ra/ezhN/Q93Z8uSbpOAqRpUdychbuzGTia8TqKbNBE20WGf45T7xMXPoDigtAvmsqdy2TuCDLXVVZ/CI4mmDkBeOaFkN/RxcXLenL3k225dMkl/pOduPujBdfkp/a6EXRyWbdpE8t53NjMa0XwTI5/DUONNf5TlTZMi7EMh47fl6Qy7WywFrdlroLMj7Td8rtvqoF3fi13UbGbwKpLCrG1mJjDmC3U5UhSEEmLrQz2kKjwHLF/su+68gnHWdXFT4sjpI9czAj/DM+in1TNigGQ0sSZIyxTdYnzSFjo9RHrkM607jpWPxvbUV6yDVbz8glvS5vcsCNtlLbP4U49Oe29Gf9zHZlPPXkO9KhiUQkCkPbl3p8rJvXnX3B46O5ezETe/g55fVYNFa6KaObNTrqbMZ6pMNiSnQ8Cu21sR638bueGxkvZTy1jdhPspYW3PbWGbbdbVx/PoXrqcyrlDntyI+2T3V5HlJ9K7vWoegtGMNxN23SJh3NbZQ608HbKDR5fGaEyy7iJKPJdqYmnmRL2gaxC5degNzkzwsNlZcAyWCUycjX8uTwi7MEpriAcUDqyxd9nR7HvAjlOzySoe6gIvA7cutJLTLK0SwSUd9afp5cZJOBoFbGxhO4kAbqM9nM6a/lW31Vm2zHojfr5Ooo/bp9OVutIl/XzXbXvsiYST7L14o9SK9410x1o02KvQd1VtsgVC9jTmEr+ynbi/rWddl+UQfCtPFlsq2zTx6nChpGPtVP/Wj76PNIMnP7enHnsYgdChmy9nDzII/RYyL9r3zBAVMIYU++C/a6vQpIxe5arsOhI2DsF5L7KVz/7zSHMrmScav+SHbLN80x000Zr4+c+ZUtFs4Q01a233apccKyyWdFbtI3bj07HZVtjJ/1uB2ObN8sz/vX4CrZnNcQkq9wnOWXcmqb5xXZbkB+rkv2pHp5nqb/M1aVT5q2x/Uelh6zvE06KhJBzrPPbZSJsoh06KyIsP4Ehq9PwnevX4bvvn2etnP0RKI66n8CsicXGnwOxGxUNxk1MCOYNVmp7waN/Ny27tNMWD9JZOJoXVNfflILEOKkU2O1C2ktn9spW/V0zYtl3YfoYhcpvdBTG20vOrfkTvyT9c3ykr/z/0N96XHo86E23L/XvX6GpIzb15X/xQ6lrbQZkO+wJ30txGD2U7KP/l/hXchhxEUDR/Yu15IVo4vSk8rFX/bBaG1zrZfYgTFBOmVbJb1jn0sHY+ov4SfjguT15CdSkzEoJEXrSG01LuWakhV1bclIZUI6oh4ko4xb5mc8Rv8I/lnOD759EV69fhG++Vrklqwvt62zwpOYAaHnOnQW5ChMNrU2Kp/rQG/9n+a18531b22zgi1vI/lfjgoryddD8q3c0ke0oR6Pni84bzwSUXBosPvItlqRdEiWgh42lUlSTyRh9Jzp0AN3KcZVJ5abFMaQTTA6wGZj8+KUg2NeWPzE8v/TWBp9qgBBC7kEiaxfUzc1EbNeOr3OdisTW+zYkE/tzcLdqZvr1H3IRPfyyv91mzw+rb8+z/KSPvn/BX3JXSbZLft8QZuUcSo+bdmk9FHGxbrR+Kmt2KHYU9rIUWyrjs6/tu+BdtpW7jz3QTbTRMPJij5olcX+GOeFXJSAnPtPd6ztO2g1Ro375Jdsq6Q79Vn60W3b59Jejoyn1pzj9n2dbf+1HuQDSxCsTGqf/JQxKuSq4T9VR8+BmnSUbEZ5OF/WTatz2a5O5RtcG2WriOwia1OxpdVDj8faqPZL6cPZiPARsxOlPPeVbFfa1vJz3Yir0scw1ut+9Fhwvjv2WZN0pMkUMyJ8Lr9YKQ+SOoIRAdQqs8YgwEngIGDau2m7cBggNRdeB9i0OMr+oJ6AcrfXly961n3aSSL11LGpG5MOGWseiwkyJKvYg+vU8qm8rYOrmxdLDkYyfr5TVnedEuTi4lHka9tkfbNN1XilLC8+dI3HIkFpuC9O4V+oRVLGWNlLZLVIh5Gf7pTT2OyiR7rx+LMds62KDbs6O//2+q5txjZpjYn6IP/EOSD+iGMt2xu5Pyd/qFzGZ3SkseagXAcX7q/Ygf6/mN0E2qvPGPLbjMovWR9fFm18435t1ZPPtsi2Mjpb7NEYBWdFd7d2UHtl19wm6iS/fPsYbmmcOr3fwpkfV/6/viGLz7nl60Vv/mWf36Yu19nmZS5GXGSfFfw2bR1J/Mf0bE/q082NVjvBilyj/7P903xm/1tsRN3izUIpz32JfQfk57rRTqWPqMdAO9ETR4ubXbPHmqSDBkW/UpHMB/8kjNm8MPkWwWiVOQNFUHG6bz6liaIWi7jQpFSgD8bUTi0ibGgHWD3ZVV/8wGBK13blU19Fdrx7FHmqL7mrjJNR9SXlZjE01yVdzISA698EegiWJ/qA/ObYya5u/DLhyQ5Gtg4eSv78KlDg9wtNHouMX9vVndMCImOhhxDL+N14XF/cTmwiGGm34QVY5PBRgqG9Vvqz5WX8ecHLumobtuXrtDXhjvouNkvEQbCTMzfiH72QS6ZLj6XonDHtbOXlyyITx2jkleyP15HGzTor/yedC/6ULgnzYmcZd/Gv+GzomOxpdOzJr+0qOntfVmRCbE9HZTvGWLK16JD9znpzHTXuhn/F3v5YZS/i3ODt6Hit+ezcgL3UnF1pbXSEX/T0dhNfGrtE28kabPFfMG7Li42pnG1Hfcb+lX2H5Isu1RqWbrBkDSo6DNjNrUkyfhwfx2YN0vE4iuwvAGiRlEnJtouTSRaxEQCfJ/QIsvbXTxbX5KPdXbAIUzbQFbuXhbyU2bGhfLv2oPm2u9jZ7tjb2AIm23Z5DF/svkyQjg0Eas/YC9PffQAc6mTZbdIxjJuMtxGJ7To4qe+YJYPTI1TD415Hh422yZmGPdV/A2td254gHW277Diet4aH4XGDdDyS4QHSYWDCPrAPMAAMAANPDwMgHSAde/NTKyxAT28Bgk/hU2DgsDCwU6Tjn/7pj+rdAZKKxVEemsLxaWDhX/7vDyB6IPvAADBwkBjYKdIBxntYjBf+hr+BAWAAGDgsDIB0gG0fJNvGQndYCx38DX8DA7uBAZAOkA6QDmAAGAAGgAFgYBQMdEhH+s6K+QaL/fbKF/dl2fhGvfyyG3lBWJ9Z+Z/T2d+900+wWm8VVHv66iU/+SeE8hKgdI3L1Ts05CVa+advqr/W68szCPmFReWFNTyu/Hv99KKk8sxF+kmdl2N+4pjGKDrLNd9G62XkyM/20suUnD2sPft+APuHbYABYAAYAAbGwkCHdJzHLyPyJ5nFGfVXZuWjb/wK37PwIQdpadM/UsDOQTwGWkUOWq/tNW/X5EArgbX3zoVYPlcvgSI5Kjjz2+6U3AH9I4ERYhDrEWlIbdVb9ozjjDwmGTzmNonRbSt5zkbxehwL9fUpzNULyuK4p+nz0QNj0vJw3scqbAPbAAPAADCwGQw0SYd8qM1+J0CTDv3lWCpfnNnwDjOkI310SkiIfKDI1qGgLXf36dXSiQT0giyXq28OGBJABlTEYVFwjkG/yI8fBBMCsxTp0N9aWZ101GNksnH9Lh0vy8fR6rqbAYv3If6HXYEBYAAYAAZWwUCDdJyGWd460Z+t16SDvqHyNvBH3qiOZDno67ONzzQ3ArohFCagqw9amWCuSYcN2hRky9ZG+b6CBF86RkLzENJRESP1KmSz7UFbNmp7RYiJJzi5jSIyyk5xTCqzYuyV6nGZJh/cl4x7FSCgLhYOYAAYAAaAgW1joEE6ekSDSAcRCv6TrZXJsSYd5LD6o24nL16GV6+/CScqqFLALERBbXF0iQZvT0gb2VohA/WCbClPROZBpENnVyTQJ4AanRVoI5kq45RMjnGqkA9FMGRM+uNZi0kHf8yL7FLGrXRRtjfyUT7Kw1OwObAIDAADwMBRqEiHfSCUCQZnNHSmgzIasqWivzZLoFqedLSCsCUjHLC5nsp0xEBdiEovyOryuGVDWxA580C6rrC9QsFZSIscJWAPkY4kj3TJGRBpl4+1HrG+IiJ6LAxcIT5yTOOpvgyLiY6JDgwAA8AAMLAbGHCkQxMLVpA+wcxZDX2Nt1e+pF+38IOkp+mOsSYdLWe37txbnzEuwVaRjrTVIZmAUsca1ZS/uwq3s5uHkY4o91O4namHU4k4LEE6eGxqSyYTDvnMfCFRZC/SXcYX7RezJmUrJl6PhEaTDmp3U+unZeEcmQ1gABgABoCBR8KAIx1+q4SC+Fm4i89saNKRyp+fh4uoeCIheftFsiCWBGjy0SQdFLxNJkJlF8yvVyRQl2cYZNslHlV2oWzDUHAuz3uwLnWGQevYOo/BXn61Ik6LmZeyjZIzGq2MSNSN5Or6/pc87WssO13LdrKkI2Zj7jvkRvTFEQsOMAAMAAPAwCNgwJGOPkloBWCUwV7AADAADAADwAAwsCwGHpF0PAuT4136S1saLgPBGRS79bGscVEPExEYAAaAAWAAGCgYAOnYGPEpRgXAYAtgABgABoABYKDGAEjHxkjHMlmb2gEAJWwCDAADwAAwcCgYAOkYlXQsQ0yG6mBiHsrExDiBdWAAGHiKGADp2CvS0SMkmJxPcXJiTMA1MAAMPDUMgHSAdOBnY4/ws7GntpBgPAiOwAAwsAwGQDpAOkA6QDqAAWAAGAAGRsFAh3TQi8DeBnnjKLOXVCYvAMsfeWN2Z1+fvujlYPRyrGfhfla2Cy5mz8Lt5bPwfvos3NM1+ZM6l1x2/Y7bSL2LIdLw7lmYSz9OnrTPcubPwvvUl79GetHPe6POqr/5tOh/PVc6p75oTLl/ade5JuMiGSJPflJMZXJdyuwRDHsZho06wAkwAAwAA4+LgQ7pOA93k9MwncgbR0lJ/UZSfgOpfPSNX4MuX5pdZkBMOubzZ0FIgyYdOpjnIHz5LFB9CcjXRFJUexuEExkg0qHIRO7rmMmNliPthXCIXlKej0R+VJ9UTrq3+pI2sU8hT4nYyHipTrwufbr+W22l33Jcxuaog8UGGAAGgAFg4HEx0CQdFxPOVBCZ4I+9kZKadBwF+iYLZ0KofFFmww+SSccFEYmULZAgTEFWyiioSkCX8lsK3u+ehdvps0DZhcEMgCMd0pcEei1HAjj1KcRGyszRkQK6pvs1dXXmZIB00HgoIyNER/dHREnKW31zmbcv/sfCAgwAA8AAMLB7GGiQjtMwy1snvc/cc6aDCYn+Xgt9fZa+TLuIhCTSQVsWaruBgr2QCwmwsrVA5XSdAvI1EY536Txtt0h9c3SkQ/qiOtSf2fogPXTwT+dUx5CQBukQ0kB1WyQoyhogHdX1JJvG2SJGZoyR2OwesDDZ4RNgABgABoABj4EG6egRDftMh2ytTI416SAD11+ZPXnxMrx6/U04yQ/qFNKhyYSQDk0GJOBLvYkK+pGALCId8iyFIw/UXxXQNelobIPEYK/kV8FfiIpslSzIdORxuvrUL42Nri/OctBWEoANGwADwAAwAAzsPgYq0mEfCKWshWyx6O0VymhINuMs3OWvzdKAVyMdMUsw4yArpKMiAykzIQREgj0FZl8m1+KRSEAK6DGboIJ4k3Skh0V1tqKSMUQ6EsnwWzRR9kCmgzIw1ZhJjmtjxpZkcdnuAw2LAXwEDAADwAAw4EiHJhZsHHp2g7Ma+hpvr8ivW/hB0tN0x12TjhpoJdNBQTMGdvXrlSoAS530KxIJvhUhMIGYn/0Q0kFtdHDvkY5IEFTmoZKxBOkgOZoMLSId8boiRHF8IB3I4CCDBQwAA8DAE8OAIx1+q4SIx1m4i894aNKRynOGI5EQ+TltzoL0WJ0lHXHLJAXqHhmogn+HiAghiUeV6ciB3GU+WlscJCuXKwJBZEKXCzkyP5dtZC0WkQ7SzWdHok2Q6cCC88QWnPoGpLdGoBy2AgaeIgYc6RjTyeUdF4Yo+GwF/o/vCBm20Zh+g6ynuBBgTMA1MAAMjIGBHScdi0FwMfsc7u9bfzfhIt4lHgK5WWynMcAEGfADMAAMAAPAwBAGRiIdYwX+VZw9lk5jyFll3Kg7NCFwDfgABoABYGB7GBiBdIwRdA9dxvYAgskH2wIDwAAwAAxsCgMgHU/imRFMiE1NCPQDLAEDwAAwsD0MgHQ8CunYnkMxWWBbYAAYAAaAgV3FAEgHSAd+loqfpQIDwAAwAAyMgoEO6aB3cmzq0/bt5y3iOy/UeyjkPRzyoqz8PgypQy/LUt82kXpDrwn379uIfaoXf+n3bsjLvPx7QvSLvnrv44jlql/fR/1zV7DwXWXh0AvYBAp57hgAACAASURBVAaAAWBgexjokI5Nftq+TzrobaFCGjTpkJduUbDOQX+dT9unLEYkKEJeUhkRhSwnfTOFXn+uCYPoJKSB2uhXpOtyGotc031IHXvcnkMxWWBbYAAYAAaAgV3FQJN0bPbT9n3SsfVP2/dIh39Tafq2C5GQTBgaryEfIh3XRIoSscl9dLduMCF2dUJAL2ATGAAGgIHtYaBBOjb9afsB0rHtT9v3SEeDUMhrx4Uw3KrtEslSxG0U9Sp0yZQIGaEjZW6kD2lXH7fnUEwW2BYYAAaAAWBgVzHQIB2b/rT9s3Dy4ll49fpZOFF3/rRtIgGanqeQrQwK2Pl5DvXdEyqPz10QYUiEgNrIlkYd2AvZiX3q7ZUFpMM/+yF9C7mQ/+WYyynbobMlarxSl4+YELs6IaAXsAkMAAPAwPYwUJGOzX/afph0bPXT9r1MxxLbKxVRSR9la5GcTDpS5uZiqp4XaRKP7TkUkwW2BQaAAWAAGNhVDDjS4b8kexQe/mn7knHQd/uS6aCymOXYxqfte6TDf9W18yApkQnZQiE9NbnQY9HlMSMzs+10XT7HhNjVCQG9gE1gABgABraHAUc6tvFp+8WkY2ufth8gHTHDop7PkAwGkQZNNIgcyf9ELvTWjy6X9tKvXKsJB9ljew5F37AtMAAMAAPAwK5iwJGObTiqTTrawfhQ6m7DzuhzVycZ9AI2gQFgABhgDOw96aCtGZ190OfyDpDdIjiYfJh8wAAwAAwAA4eJgb0nHbtFKJbJ1Bwm0LDAwO/AADAADAADIB3NX5csQx5WqQOgYbEBBoABYAAYAAZAOjZKOgAoLCrAADAADAADwEAPAyAdS5OOVUE0lAlZtS/U7wEY5cAGMAAMAAP7gwGQjqVJx7IkYqieXNsfgGAyw1fAADAADAADm8IASMdGSIeQiWWPAPCmAIx+gCVgABgABvYHAx3SQW8mfRu+TE7Vi6xSGZXHa2fhg3rJlX19+pswzdfagZheunWvvofS+/ZKrkPfS7kv31qJrylP328Z+gVLlKNeAha/30KvK1cv/ZIXesk16s/rl8tUX/kFYI3Xqg/phAmyPxMEvoKvgAFgABjYHAY6pOM83E1Ow3RyHi4yedCvSD8J08nbcDc5iaQkEo6JJSHFSX3SMU9fZaUArUlHDuYp+MuH3qi+EINrem26at8L8kQeWu/roLb6U/S36TXssZ/04TZ6A2nVVn1wLssE6VDkdHPgLBhCn7AFMAAMAANPAQNN0nEx4UwFkYlZk3TwN1k4E0JkRGc2PDD6pOMiBfch0kFkhEiIvJ6cyAFlJm6n/W+hZDKQSEtFHBJJIOJC1+JRvf6cZNJrzYUI6f7iK9v9Z+9BOkA68jzx+Mf/T2GhxBiAY2BgMxhokI7TMMtZi95n7jnTwYREf6/lnLdeDAkZIB1ECtRn6imLIeRCAj1lKogAUDldj4SACEciBfmbJ51nM+I2idoSiZkSIglEXi6ZvBCBoXPJsIhOkWCoLaCoEzIdIBggGMAAMAAMAANrYaBBOnpEwz7TIVsrk2NNOogJESHRmY/hT9trMiGkQ7/KPJKE40I6dKZBMhJCUFrH5vaKkI6UCYnERUgHkQpFNKr2IB1rAQ13CZu5S4AdYUdgABjYZwxUpMM+EMoPjXJGQz/TQRkNIRZn4e65fvZjNdIRH+KkbY4Fn7YXcqKJhbTRZf68Ig2UEVGkI9dPZIP61KSHzoX4xLogHSAduMMBBoABYAAYWAsDjnRoYsFs8sPkTXpgVF/j7RX5dQs/SCq/dKlJRw7sagtEk4FIHhaQjhbBaJV5WVpOvuayGZlMkA7uwVO/3aMzLbk/PNOxFvj2ma1Dd9xtAgPAADCwOgYc6fBbJdThWbiLz3ho0pHKc4YjkRD5OW3OglC94Wc6csBPGYUqyKf2LYLRKvPyiETozEXMWvRIx/xZuB94SNT3Jc+AyE9uKzmdsQOoqwMVNoPNgAFgABjYfww40rGNAbVJhycHh/X/NuyMPrEgAQPAADAADOw2BvaedFC2Q2cY9Hn1U9lu5mFsYrTboMCkhX+AAWAAGAAGtoGBvScd+5khAZi3AWb0CVwBA8AAMLDbGBiBdOySAcbOaPTk7ZJNoAsWKWAAGAAGgIFxMHBgpEMbtUcIxijXeuAckx0YAAaAAWDgMDBwwKRDO3gMoqFlaNk4x2IDDAADwAAwcBgYAOlY+IIXTRYeen4YoMLiAT8DA8AAMAAMtDAA0rGQdPSAswoB6fWB8hYoUQZcAAPAADDwNDEA0rE26XiagMBEh1+BAWAAGAAGtoUBkA6QDrzCHBgABoABYAAYGAUDIB0A2ihA2xZrRr+4IwMGgAFgYH8wANIB0gHSAQwAA8AAMAAMjIIBkA4AbRSg4U5kf+5E4Cv4ChgABraFAZAOkA6QDmAAGAAGgAFgYBQMgHQAaKMAbVusGf3ijgwYAAaAgf3BAEgHSAdIBzAADAADwAAwMAoGQDoAtFGAhjuR/bkTga/gK2AAGNgWBkA6QDpAOoABYAAYAAaAgVEwANIBoI0CtG2xZvSLOzJgABgABvYHAyAdIB0gHcAAMAAMAAPAwCgYAOkA0EYBGu5E9udOBL6Cr4ABYGBbGADpAOkA6QAGgAFgABgABkbBAEgHgDYK0LbFmtEv7siAAWAAGNgfDIB0gHSAdDQw8H76KdzPr8L7xjUscO0FbnWbfR+u55/DfPo9MAicrYCBj+EWc3MFe7Xn62OtYw3ScRbuJmfhQ2cSfJi8CV+evwlTdf1i8jZ8eV7+ZvnaaZipcqpTrp2HL5PTjRiOFrt9WLhW0vPdVZjffw738e8mXGSbbhZAFzOR4Rb/keRvH/gfw+396vZbPYBu1i+L7bLKuKiu+PlTuH63CV1r+avbrEc66r6H7aHGNxSMCNND11eaY6T7pmx5FFZaG1bQM/ok+f72chN+32AfK/uD8cJr4ufGTUG5LmPV44/tZh9NzOH1z64Pek28v9c+VjjTNr28ieu0yJwcC37r+qTDUKyK+jodJ9R/xG3dn8js61xsEsef8V/3VfSy10QG21LZQ/sv2WCZG7UVScdJmE7Ow8XxebibnGTnEekoZOIs3D2nOgROIh1y7sEK0jG0kBKIxNlD9R50TYPGLWSjyHcyHzSWbl80geyish05Ht/b/n/5cdFiURaUTem1vPzV7b1m3wN4Jh02i+n9IB1i+82OfUMYWuAv0V2ONIaI48ubNp4p8LmAbbFPuNLrKmdMLqafzFqrbRUDrQnUjbUkkoJPYZ5le/xy4F9qPSebuPUqjzuTmdr+PZ1L27pNtGsmNHKddc3rRdSHiUa05VytJZX/lhvniqSDsiCUnbDZkIp05EzJJkmHc6QCmAEWlRtgiTH9kQEY2V9irWxoNpyUi/Ej+DKoqC+nTy/oJX18f5NjK8cCkq4pRhn7TmVTHh/1J7pNIjDkTlaV93SScmVDmdh8bMln+0U7yF1znozetvI/T+rrnE1RY3J2KeNnu17T9oa+m8g2KOOUNqTT7VRlhpKfaMJJH/lofCh66qPChR5fnGA34XZOfd4E0Y91sL40bN+NU985af2yL8U3zaOToxcnLUfr3Qu20fdXcXuDbVMWU60XjbVk2XryOzaLY1DX9DxT+uqxW9nJf+KzRTivFkHlV3+N/p+1xx/vLAXjZvxMXDKW9F2wGo/xf9OPSS/dpjufxf5kRzV/jl12xNhG2pTxk11lvshc783li9mncF2tMyT/JtzGOVWuZ9915LfnpscR+zn3RTZL/RWduQ3ViX22sjYNMkJ1db9kh/y/1I9zoWRAjK2iHmJPtkGZD8qPs48h2i1mEX091r2MpfhFfFGOvq72u++39NPT2Yy3hUUau14vaLz6f4UztuXHcD1P9mjUNXq05B0fhZVIB22tcEaDMh5li8Vur5RyznSUbZeHba84gyugZGBFgNiJWZxZHERlxhnK8KY8EQMGS19+TwZPHAGsXSSscwqwqLwsanoypokqC3CX9FC9BTaIdvJyWM++/KNQ0nzWlt3xRx3tJDcAz6DUtqVz1UYBu2cz8n8JjsWWrJfue1m906KnJ1+y2e1l8UPGXR4H91/KrS6kvyx4pQ61UQtNyzdJD93ekF5lIxpztMfsIx9z8Ez+FvwQ5lUQs/ooO6l51pUv43d6kC6mjZpngpm23GV81sB5Q35XTrKzBIKsZywvc1ZjXuzKfSr5Tq6tp2wpdqKjk1Ps4MaubFbqCGZknvfbyPhpfDLWWKb6pf+1zlS3zFPBMB0Zv/l6xkZffuw3EzfpK9nE2U10jcdoH6dzKtO41W2sfViGLbPyeyRB20rbheecXTejTcUOQmKqtVnNb42BzrmRafzEPtDxQXza1XmBzTS+oy1lLFq3VCa2pGOU2/Cf1NF+8ecrkA5LNIiAyBZLlenIWyrrZjq+Cj96/TK8evFV3sIxiywZRBknOikurjIJOxNdGZKcJAGgGF4tJKmuNqJ2rD73RpX/dVsqK//X4LETqdaDA1NvfL6/Xj1nF2VD0ZmPLfnrpKdJL7WA68mYJ4NMYqnn24jOfozUjsdZ7Ep1ve7L9ZexIBjxEyr/X/rXcgkPejHg/kh28UXBHPVh61NbWUCsL/T4xUZUVsZFemjZ8VzIxWCmo9zdaZlVf7GvIo/r+v8bRG3jpINkarsV20adso/EZnJcrGv2ZTUnpG3xO4+//F/Zi3QU+zuci4+zPL/OkHwzRkUA9Pj0+VCb1L9fr7z8SIIUuRU9aazcVuwg/6s1eEC+lVNsNuwv8VvrqOZOvilgXFRzWMiUsmcZVxlPGSPLM3M5y6Brtg3jQNkhrj00R3091rnIbo1LlUXM8Fy39vP9ljZ9nVMdwaEZT+NGssJ/GV/RJT3IqzEo62a2uV6rip5ksxVIBz2rYbMWX9I2iiUdmpyMRzrm0yu3X2cHmgGiJnmZ3LJ4uUlhiEJaVGUB9s5TRhdZxUmsS/m/Dx5uW+tRB9Myvgg4WeSqoFvqiV752AJYHEdLvlpsGmPNfZprbpx5MvEkLIuErqfPte69ck3mqL7Xvd+urXOS6SdU/r/0n/0ZF90yyXJ51EUFyYyZ0kelQ7SRakMLZmznx1H+L/K0vco5B43yf5TZ832UL/OhLDj1glvk5zFkGxVZpFs9z+z1ggMpb/Sdgl8O5pWf26SHdGvax+ma61R2EV28z8r/ua3BvoylffRt8v+VfNte7s6pfg5iC9qQDTwGsjzRWdnD1qVxEiEWO6i+RK4cpS91tHKKzSJmlMyMIdW2XSZ6iF7FPlYWl7fKYr+ksyIj8TytoWX8JEvdnFZkIslW4yd52lY8hlrX9thkLGInOUq5jF3+L8e+zqUOr43u5oZ0z+tSew6JDeVIukccXva3YobGtzTp0JkN7rAQCks6tvUgKRlcFkMGgyxAxRhcnidjAjA5pKTfyQnemcUxVLcsgr4/ancTLnIarbTjRVnd4ZBs7VCaYArAVo7up6ffkjrHySR24n7JPpIVMGBQk8WUd+wT+9EANQuE9Qn3R2U2GLPPaCwF/Kyf1LNttF49mxX/t2xH/Vl76D67535BzP8XP2S52s9xYUoYym28f206u6uDsa+1mcF0xJbYr5ZFdf2c0JlCI9/0xTJbPjPyRc9qvMVWRobU7xGCaMPaZ8b/DZzru/Uir6OD0zX70ow/+SlhXstnzCYdXZsiu/ZFvqYxE9vLurMAr3HtUfvq0ZYL2jRIh1mbHKEzeMljK/MyX8/rR19+tmvU0/ki992wU7JJhVvCRibhDteNddnKL3LyGASLJE/5WeSyn2VuFRtkP1L7bAfq/2O4nd2Yda8Z7EVu5xj1nt1knVheR77zr9W5jFlilIwt9qlxGHXhOZ/rRD8wzo0t313FcYrNxB6VXRvja5MOl9GYHVP2Qv9ChQciZIOO5SezKzzTYeTodtpQ5ZyNSQQiPciUmKk3hg7uZAwyhCUdaTExTFcWOXJsudMsBIT1YB2kbtFNHCpEiJ3ADowsen4V6Cnp0p+VY9hmM+i7CaudmSYos3V6OM7q19XZTBY9lr4stmWyjyEgaTw540L9DYyRZCc7c5ZqwcSO4233Z/zfsB2PP+ls9NNjTufaloIDapMXpWKbIlf5OT1kyn7W5d5m/pqMv6GT+FrZzN9NmTG6rZrmQtD1vcwX0tfOs7i4JpsY+T2b5VRrGntsWxYw8b8c80Ln24nPtJz4EGjCuS7XPiO79caZ/cn2Lr70a4Pyi5Izn1LgL/NsyP6yINuj8r9fG5SfyTZlzSBdW/MsjVPGrtqY+arsX9ZFj0vt/4QB93BkxpO2bUdnbdfWzZ7Wz4wz2bpgQtkrjdPUT772ZVa+zC2yYfFdWau5LI8vzjuWy3q49UfmmbZDM97oPkSHBcc0fjuejnxHOgrJGbJZ3VeWpXCub1atLVPfJgYwdorP2mNskI52RTth9r0OGVwtJslp2eiyyOOonqlZx+e1nZ8WjhbYxC1GHDD8Yregj73GYO1/WtDHm2e0MB6SvTeDJRt0N9PnxuZ9I5uR+67m247pvtdzeRlbLkeuDpR0eDbvtkWePDiWAdAm6tRBJy8QB2FjGr++y3fp4AOwgb6TjRkNyVocwNj3Fes7TToGcVPu7BfdbT+ub+p1QbJ9NlO+iTV4pD4k0+UyHy07HyzpaBkDZSMBdHDhgA7AITAADAADTxUDIB0IgA/cQsHi8FQXB4wL2AYGgIFNYwCkA6QDpAMYAAaAAWAAGBgFAyAdANooQNs0W0Z/uAMDBoABYGD/MADSAdIB0gEMAAPAADAADIyCAZAOAG0UoOGOZP/uSOAz+AwYAAY2jQGQDpAOkA5gABgABoABYGAUDIB0AGijAG3TbBn94Q4MGAAGgIH9wwBIB0gHSAcwAAwAA8AAMDAKBkA6ALRRgIY7kv27I4HP4DNgABjYNAZAOkA6QDqAAWAAGAAGgIFRMADSAaCNArRNs2X0hzswYAAYAAb2DwMgHSAdIB3AADAADAADwMAoGADpANBGARruSPbvjgQ+g8+AAWBg0xgA6QDpAOkABoABYAAYAAZGwQBIB4A2CtA2zZbRH+7AgAFgABjYPwyAdIB0gHQAA8AAMAAMAAOjYACkA0AbBWi4I9m/OxL4DD4DBoCBTWMApAOkA6QDGAAGgAFgABgYBQMgHQDaKEDbNFtGf7gDAwaAAWBg/zAA0gHSAdIBDAADwAAwAAyMggGQDgBtFKDhjmT/7kjgM/gMGAAGNo2BDuk4DbPnb8OXyakKSKmMyuO1s/BBBeyLSSqP19+EqbrWUvpi9jnc35e/+fT7JOv7cD1vlX8Mt6r+/fwqvCcZ767CXJen89vLIbC4vu5vwoXoe3lj9LrP13ptSN9P4fpdkfd++ink8Xj9Zh+VTUsbbSNqn22j62vdZPxRb2szM/Zum7ZsrQfOYSNgABgABoCBTWKgQzrOw93kNEwn5yUYHxPpkP9PwnTyNtxNTmIAjYRjYknIIiWJdOTgGAMzB+5IRnKg5UDP9ehcyAEH2RzYY+Cl6zb493XQfR2FSQzMqW86z/I12GybSAxivQHSkQhHHqcQm6EjyVeEotiJ5HTGf3lTSI4eS5QvbY6CIUNDOuDaQmLYx5bGDM5hJ2AAGAAGNAaapONiwpkKIhOzHIA06TgKHyZvUiaEyhdnNrRQOi/BlBzCJOL20gb22CaTAHutBH1xKF1fk3Rk+YmALEk6mPT0SUeto+jaP1bEII/ftqnqZT8pO/m2REIUofE+wf/WxrAH7AEMAAPAwGYx0CAdp2GWsxbnaotFkw7OdDAhoTqS5TjnrZclSIghHXJH3gqKuUwFU00STLBdl3QwCYokImYKyvZOd3slB+8e6fh/4zYRZzmYVMUtk5wd0TLonHW3RCW1q0gQlzczKKS/6KbPE9HL17LdNgsoTFDYExgABoABYKCHgQbp6BENIh3luQ3ZWpkca9JBhiZCYjMfJy9ehlevvwknKtDFbZT8LEYiC5lgKIflMiIdJVDbrRWq/5BMhyMdVZCX/u1WBW/DLEM60nh85kHZozhIERQiItN6uyfarqUj2cple7Sdb6fIdBQ7K4w1/YDrsBUwAAwAA5vGQEU67AOhTDI4o6EzHZTREGJxFu7ysx7koOVJR32nrrMZydk5UKtrVOaC68NIh8ocZHkebEo+BalMhnqk4/u4hWTIUe5bEwshUu0sjd9GiSRCMhk6WEbCoZ6T0dfkPMv3Y8P/m55Y6A+YAgaAAWCgxoAjHZpYcGV6doOzGvoab6/Ir1v4QVL5pUtNOlqGp+BZkw6VcYiBkgK91NNBPwVtc7dP19uBu5av++IHLPO2QzcwN9ok+TSWQi6UHj7z0O27dkzUObZ32ZUW4YhZHrFTp6+VMkG9PlBeYwk2gU2AAWAAGFgWA450+K0SMuRZuIvPbGjSkcpzhiORkLz9IlmQviN6pIMzFnL3rwOpDfr8U9kSkFfPdBQZmXAQ0SFioLZxFj/TQWMk3Up/hYA0+jNEqWUf3ZcaX8pktHSL2Q8ln+qwDjqjsiwha+mEsmUnFOoBK8AAMAAM9DHgSEe/IowI2wADwAAwAAwAA8DAQzDwdElHMzPA2QiTiZDnHXDEuymAAWAAGAAGgIGtYuDpkg4AZ6vAeQjTRVvcKQEDwAAwcJgYAOkAOQE5AQaAAWAAGAAGRsEASAeANgrQcFdzmHc18Dv8DgwAAxoDIB0gHSAdwAAwAAwAA8DAKBh4YqTjY7htvscCTFMzTZwDD8AAMAAMAAOPgYEG6ZDvp8grz/nLsvyBN/nGCjmrvJXUv8W0vCI9fRhO3t+Rv9FC7em9HyLjrfrGS1v+sHH0+yg+l2+PZOYq774o76rw77Yov2ixfZVy6SO9jyOTG1ee3pdR2rWA7duo93G4d37QOzf4JWq9NqRvGRfZyb7F1LUTveV9JPJ/tlVLX5QN4w/2gX2AAWAAGFgGA23SMZG3i2oj8gvA+JXo+vwo2K/R0mvR5eVgRCCYtJAy5c2ltr1VVH/7Rcvvn+c3gupPvKsgaoMw92NeTqbeHBrJSH6BFwfsEvSFHDAxscSCy1pvWbXjI/nUr/QlLxCT/921PA5bXj4MN0Q6WH+rp7bjKjrrdjivfQqbwCbAADAADCzCwAqkg4zJ31mhD7rJK9BJgCUdhVDYcmovbzUtdWoFVyUdhQBQIG4F/Va5IR35q7U2sEfd8qvL7bUS9AVkqwRw29cky6e+/DXp35aTfCYTA6SDdF+QybB2EFk41riETWATYAAYAAYeioE26dDbHipTQcLiNkvOZLADLLmQD8ARsZCMhzhKl8k2SsmE8GCkXLZe/HXpSx3zi8DsNoMYpxVYTVlsfxMu6OiDdC7TQb9FMFplSsecsaAy3RfXIX2YRNC18kr17vZK1rNPOkqf/E2b+Ar13I7lFvLS0xXlgiMcgQVgABgABh6GgTbpaG6vsKC4RdIgHV8yURGioQmGKNkqSyQjyxzOdPzg2xfh1esX4ZuvpU85ctA3gTWRkVb2gwJyrBsDfCIrmWBIn/prspYM1FsWmyQdstWi9HBEpWRaliMdcaK0xpeeASnfmNEycY4FBhgABoABYGBzGFiRdMgzGvbDcDbTUZSry2V7pdRhZ1K5kJV1SYdkD+rgb7IaKePQKmtlIOIH4OIzHtK/PIPhsyq13D5QVV9RH93WXxNbufJMIPqkoxCT1EduI336h05LeV931IFtgAFgABgABtbDwAqkg39twg+S8nMc8iuVmlyIMjU50c+CFKe5h09z1kP6WeYoP5el4Cy/+OB2FHx9tqNNOngbomQxdF866DNJuM8PnJIcTRwW6av74sBfnr2w14qNbLkmFDQWq7MQImqjbNEgHT07FLmLxoLrsBUwAAwAA8DAchhok468VULPVfAzFXFbxZABIgpvA5GQPulIv1iR/nJ7JjBlS4b7Yaet+kxHIgDqOYgSgNkIq5AOznaUrZdCVmzQn1AA179AWZl0FBmFcJC+TBTK1o+QBlduns2w18z4o549WUyyyhiXAw0mF+wEDAADwAAwsA4GGqRjTw3Z+bksGYVIhwnE5qHOPR3vRsawSnbmkO2Esa+zuKANcAMMAAMeA0+HdAwGYckEyLbDCEDwGYaBTIx3yij/4+Vgo7zydxRfDmJ/BKxDPrAEDAADS2LgQEgHFl4EP2AAGAAGgAFg4LExANKxJDt7bEdBPhYLYAAYAAaAgX3HAEgHSAfSgsAAMAAMAAPAwCgYAOkA0EYB2r6zc+iPO0xgABgABh6OAZAOkA6QDmAAGAAGgAFgYBQMgHQAaKMADXcID79DgA1hQ2AAGNh3DIB0gHSAdAADwAAwAAwAA6NgAKQDQBsFaPvOzqE/7jCBAWAAGHg4BkA6QDpAOoABYAAYAAaAgVEwANIBoI0CNNwhPPwOATaEDYEBYGDfMQDSAdIB0gEMAAPAADAADIyCAZAOAG0UoO07O4f+uMMEBoABYODhGADpAOkA6QAGgAFgABgABkbBAEgHgDYK0HCH8PA7BNgQNgQGgIF9xwBIB0gHSAcwAAwAA8AAMDAKBkA6ALRRgLbv7Bz64w4TGAAGgIGHYwCkA6QDpAMYAAaAAWAAGBgFAyAdANooQMMdwsPvEGBD2BAYAAb2HQMgHSAdIB3AADAADAADwMAoGADpANBGAdq+s3PojztMYAAYAAYejgGQDpAOkA5gABgABoABYGAUDIB0AGijAO1Q7hAuZp/D/fwqvAeugCtgABgABioMdEjHefjy/G3+m2XD6fLzcJHKLyalLrW7m5yEyfFpmD1/G0pbSstQ2Zswzf09PFUzGMzeXYX5ngeA99NPYT79vnLc4Lg3aN/Hlq/HSQH99nLLmBHbXd6sZfedJh1PYD5oPOB8pLkgcwLHR1uHnxLWG6SDiEWLGJyFO1X+YfImfJmchQ/HR4FIRyEXut55rkNGWgxJnQAAIABJREFU4zan4znuCSyyjx30H1u+nmyjkA7CzP2ncH15Fa4vP4bb+xGJzpYX9VHst+UxaDzgHKQDGNg/DFSkgwgEZyrsYIgw2PKTMJ0wObGkg8oLCSn9UZajZEc2DpbLm3B//zn93XAWJpGOa0p5x2upPC6MHFCkTbyDbpGUXPYx3M6vQunrU7h+Z21UjYnazq7C9XxJ+bJgm7F8Lnfc1J8fo7Q55vHYrMiQzo3xS189+cffq7EsE4wH5JuxqDH2fEPkVmU6iAzdEzkgHwz15caS26T+xP/WbjJOjZcBXzv5ZnvFyNeYERmMjSJ/wGbin3WOpOOeZ/2q+bWOHdBmvJs+2Bq2bmDAkY5CJPwEt8SCF2ApkyO3oUyHJhf8PxEUS1oGFvGGol4f839c9BsBIgUDWdApaPE5L/glVU8BmAICL/i0H58DHAWN2ccwcUE9Br1YznUleMkxkxh1p7xYvgTQMpaSaSAdS/mE9DJBpEM67mXMR6Ho3Bv/kHxlk+gfsdmQH51Olc7SlvSRgOx1kzpKfgzkyhYGL7ovq2OxP9tCcDFJZKr47AGZDhPctS5lHIRdrYuRP4Azg3kzZtt3q17B0eK6rfYog92AAWBgExhwpKP/zIUlFmx8KaNjeQak3prh65qIJOd9fRK+e/0yfPftc8UIOVBJ8C6BIQXNxp1+d0E1AUAHGpJhgxaTDCkn8vEp3NKzFHlvX64l3TMZGQDiyvK1jtxvHlsMtJIxSUdDOlp69HR25YpkZXkpqJX/qY2TL5mGWPer8KPXL8OrF185X2o7a7m+P5W16IyLfMS40H3SuDt9xXIhMzrQM7ERjMmxkNAj5feWXQfKnM9FZ9N3JDlFL5rI1s5qfB5nzTkzoE/0jbb7orq4vomFFX0AR8BAGwOOdNitEW205bdXWoLo2Y7GsxxrLaB1/2XBdtdcACj16kWYSUe6M728CrfTj+F6dhUupp/Sw4uujQoGElgkeNEx3zWrALpYvg4+PJbcRsnTfhk+7+nsypcmHSoYVnfaS5AO8kcie9FmKVPEd/rLkY7baXrmQm1tdfty20ElM9TPQAzb0+GrskHKFCmfS3+CESYftfzs50iUlJ2939eYM6XvJfRvjQllikjDhoJpHIGFdTDgSEd62NNsj4hh7bZJ/0FSqa+PHdKxqcWMFmaXuYjG6JIOvtPNd58xGHLQo+BwS89hvKM7409hPpdnF1yg9sGgNZY15Jttk6iXbI+QfHt3bB1O16Wu2L6nc3/8ffk6UyD9Lzpa+RT8eKvK9RX9J2PjcWTfKLtG39CvV5S/yAZUnjNiui9nf20vrYsuX3hufNIY/wKZoqfROWVqeMzWZtEfmZw15Dn71POgJjgLx6j6RN1hm8M+sA8wsBoGKtJBBoyEovGTWVOefrlC9WWbpW/8LZOOlJ4umYZ0p+gCgLnjS8FD2kiQi8FICIwOYIvuQFsL9RryZX8/6jXnTIsEqhiA1BZHLo+yOVjXZZ275s74B+Wn4Cg2K5mDHuhYp2Z9LT8+bCukQ0iFbKUI6WNyIX4SW8T/u30xucryyXY5C+GvKTu1fCllSZa1sxo/Xc8y3PgFV8pfolvpb8OkYxlyLGPDERkNYAAY2DIGmqSjTx7U4rplxaDDU7C1C6BjY6YKuKSPIjfb0KeS+Zh+RJYD68hj4g+ygb8aAyAd2wg86DPdLTwy6fCZGXnWZsP+4eyYZGaWzJhsWAcsbvXiBpvAJsDA7mEApAOLP9KJwAAwAAwAA8DAKBgA6QDQRgEa7jh2744DPoFPgAFgYGwMgHSAdIB0AAPAADAADAADo2AApANAGwVoY7NpyMMdHDAADAADu4cBkA6QDpAOYAAYAAaAAWBgFAwcBOmIvy7I707YPeYHNg6fAAPAADAADBwCBirSYV4A9rx8LXZy7F/wJV+NpeNb85rzxS8LGxdcmyMdq/4ElOqnn1I60qN/ZplfeAWmPQrTPoSJjTGOu8bA3rA3MLAcBpqko3wN9jx8ya9EHyId9AXZ8kG3XSMdmwPDqqQjOcG8pdI6Jr/aG4QDhAMYAAaAAWDgiWNgAenQX50dIh1EOM7zp+uXIR30XZPrKX0zhTMB8hpoygDwR71ShiB9d4LK57ObMKf68bXZdH3Ri5j6mYaefPMa8CiLPmvPr+AWXfNRvomhX8Ndff+k/xEw6ReZDkvENkcS0S9sCQwAA8DALmFgAekgonEWPkTmtYh0nIZZqrsc6VDfwYhBmwkEbzsImeDvY1BQzuUpwN9ervCK50amgTIM+TscSv7wB7aWyXQ09GrIFxAg04EFQbCAI7AADAADTx0DTdLxJX/srWyZDD/TwfXoeZBZ4wNwJy9ehlevvwknKm1kg20J5jGjMf0+p9jkfznGL4zG5yN8cG99Wj0BuBH0e/L5C6aKkCidJ/6jb/mayqjEzI37vkdDvgDL6oEJJ3bBEVgABoABYODpYaBJOviZjpMwnegHRBdlOsg4Z+Fuclp9dfYhpIOCMm29jEY6hEjE7IcnH4Uc6clAOson23l7BqRD2wfnT2/hgE/hU2AAGFgHAwOkgwxKD5K+CdMYiM/CXX6o9CjEX7lMTsPkWH7Fwg64mJyH2UT/6qXtGHuHX4J5JhdRJpVzAM/lOWvgMx1tOdEouU2p05NvjVj04vKij64nxCiW0VdG/ZdMG/KlvdWj6CfXcYRNgAFgABgABp4KBhaQjqOYtZBfs9if08rWiyUdTFQeRjryg5rqq6BrkQ7JVqSHVWO/6eFPG+wLuSA5Wr484CoON9dbD5LGh1xTpmOBfC2nIiqSccExb7WJD3DEAgwMAAPAwH5ioCIdj+3ITC4QbBFsgQFgABgABoCBJ4UBkA4A+kkB+rFJM+Tv590X/Aa/AQPjYGDnSAccP47jYWfYGRgABoABYGBsDIB0INOBTAcwAAwAA8AAMDAKBkA6ALRRgDY2m4Y83MEBA8AAMLB7GADpAOkA6QAGgAFgABgABkbBAEgHgDYK0HDHsXt3HPAJfAIMAANjYwCkA6QDpAMYAAaAAWAAGBgFAx3SQW8ifZv/6HsqzIZ0ubwcjF8gpuvzy8TopWH+JWH6q7XS5xaPA28CHZvdrSvvsd9b8tjy17Ub2m1xXuX1ADKAM2AAGFgNAw3SoV99rjuj16DLK9HlNej8BVr7VVldT3+lVtrQq9N1v1s8B+l4sK1BOraIz7HmAeQ8eB6MtmbBV/DVE8dARTqIQMhrz/VEo1eg23L6IByTEEs6+ENxkh0p/fnXpW94MY/fPPmcXmF+Ey7IcYl0XNMH2eKr0FN5dCq9+lzKP4fby1L/vXZ6Ji4fw+38KpS+3EfddBs5p7bxtegiZ4F8aWfGwh+8i76g/rLOui+yJY/HvrZ9SOfG+BfJP6bv3chYks2kDY5YLIEBYAAYAAYWYMCRjkIkNOGgc0ssmDBImRy5jf0wXPzy7PPzSFAsadkg6YjB2AfhRCLuS9AuH2bj4BmJRjQQBWAiERykiXTkb7MQAYjfWLFBnTIA8mVZqmu/o6JIjPp+zGL5onMZS8k0kPxSPiG95lehECSrH/vClhWde+Mfkq9sYmy2QT8uAKvHJP6H7YEBYAAY2C8MONLRf+bCEgsepJTRsTzTUbZgBAx8vTwDIuWTr0/Cd69fhu++fa7YIQdKCeL6zj0GzcadfgnMzvg5S8HlpZ4L4JlkSDmRj0/hdvp9oODOOsi1JCOTESdTB86V5R+FoqPT2WU/on0M6Wjp0dPZlefxD8hPmRTxCx91tuer8KPXL8OrF18pX7Z00mXrtNHtcZ7nksYdzlfAIDAEDAEDY2LAkQ67NaIVWX57peVAeraj8SxHk3S02g+X+UCd9V456FMG4FO4vrwKt9OP4Xp2FS6mn3jrJQZdl2lQX6y1wVhlOhQxKHquEfSXITlVsHFych+ufGnSocZfyVqHQKzTZhgL2feVfmgH2wADwAAw8NgYcKQjPez5vJGVOLbbJvEz95PWg6Qtp3ZIx6YCQ8wCNAJil3S47QWqF7dX0hYCPYfxjs4/hflcnl1wgToH8NZ4U9ka8s22SdRLtodIvs4seLl0XerKtZ7O/fH35bNtdOZpWfAS2bof1F30LUfesmr4dFOYQT/IBgADwAAwMDoGKtJBgSQSisZPZk15IhxUX7ZZ+kFoy6TjmLcFSrYhBatu0JdnF8qzGPJ8BwfI1D6SGQn0vQBeAmU1/jXkT/TDmnPOtORAH/UpOufyOHFWIR398Q/K91ssKotTjV1NZpCOAYwoOw3ZENdgQ2AAGHgKGGiSjqcwMIwBExQYAAaAAWAAGNgtDIB04E5z9PQaFoHdWgTgD/gDGAAGxsIASAdIB0gHMAAMAAPAADAwCgZAOgC0UYA2FouGHNyxAQPAADCwuxgA6QDpAOkABoABYAAYAAZGwQBIB4A2CtBw57G7dx7wDXwDDAADY2EApAOkA6QDGAAGgAFgABgYBQMgHQDaKEAbi0VDDu7YgAFgABjYXQx0SAd93r58T4W/GGs/ec8vCqM3l9L3WkrdL823mbYNoD+UJi/nGgLLH//0+/Bf//6z8Mc//Cz8x3/+Pvz5D+1+h/pY5tq//eXvw3/95TRM/uXX4b/+89fh3x5ATMbR+TT89T//Pvz1X45C1v0BOuc+Vhg/jfM//nSyGQJD/iU/P2AMy/h5VZ3JLmTjVt+r24zfClt/w6bdf0smymArYAAY2DcMNEiHJRdlQOfhbvImMAGhb7Sch9lESId+bTq11//3QUGkYxmyITrEAE5kYATSEQPoCkFXdPTHcXQm0sEkLAe/BwRs6mPV8a8awL2dzP97SjpWtRmPOX3v511/nhjbPMCv6Ac2BgaAgcfGQEU66JXmrU/QU2bjbnIWZvHDbXycTuiLspTp0CSj/9E4P9i1SccxBdmSgaCA99c/Ufbj78N/0R8RE1qcKXj95Wfhz/+eyqVNDGq/Dn+N5b8Of6YMSsoUULscdDcQ/DLpaOj8H3/6WcxQRJ3lzt7JLMH8NPz1338W/kxZmDhOnekppKPUX39y9cfPGRWWn4gJ6St2z8eiWyRBubz4LGaRKt+cKF/JOJMcCbZJXsk4UJsijzFWypryF+g8ObZ6SAaH+tI4k/KHYQakg322Pl7RHrYDBvYHA450EGGoP01PDiXSQVmOi8l5zHJM43mLdPC3WFrExQNjVdLh28v/MbALoYjBPQUhF6AyAcjlKbj85TRsIliLPsscrc5MdGIgJd2EgBwfKb044Eugy2ORYDzCcchGQ9eyPShzJIQwZpEKWTDtnQ1yeyGSiiDStX/7S+on929JaW6fr/MENTKV/TLpUmUsh4hQIk4RQ4pEubpZ5sJykI7lbbU/CyvGBF8BA20MONJBWYth0jE5po+3yddllyMdJy9ehlevvwknbgHuk47VPnlug0e5y42ZDhXA8/85qJW6to+2sYZB9BCdlbysG5cVvVwgdQF0WDfVv/HBajrzMy4qk6T6KnpaWVQumZF41KRDzlU/cRzOBovGFjMQ8XmW38fM1h+JeCa/d+UbQqd1dnZWuokc1qdfr9L365Pw3euX4btvnzeeBwHpqOylbI5rGps4Bx72HwOOdPS3RiTToZ3OX5ddvL2yM6SDAjUFoxzUQDp+9PplePXiq0YwHAA32ZG2TBRpaJIOsrN+4FcTJX3ug0z2z4AOqg3LPg1//svPwr/96dfhz/9C22qNZ3+czKbObhtM4x2kYzl/aJvhHDYDBoABjQFHOuSz9voZDTZY6/P1LdIRf9WiPnuvhfnzfqZjNSfZ4FGIRM5spACV0+Y5qJW6to++/HU+0+7HTf935cVArVP48kyDu7N2AbQlQ8o2pbP0F4/ZhmwrGo8mIbmObEfIcxJCVIb01zZQ5KL06X5FEvuiZ3NO4i+O/uPfky6mH/J1TZQqnZOeso2lx7w26fBjMP8j06FtjPP+2gPbwDZPAQMV6aBBReKgfgbLz3K8Tb9cKY4vpEP9ZHZJwkFyRiEd+SFGFXBywFyddEwubwL9zHGVX920gNIlHelBVt6S4IdcOQCuTzo2pTMFXb1VUh7mJEyQfnK9PKtR2vw+/PlP7pkOISAmCDO+SjshXQl3kUg40mHKWA8hDaUfJz/KbOtsx1LkU19lzM4fjTG0/F6XgXTUNilrDK7BFsDA08JAk3SM5eRNkY6uvplcbNBp767C/P5TuN6nnzjuo85rB/EN+noUHUA6uvN3FPvvG16gL/Cy3xh4dNLBL0d6eOagCcQNkw4iSfd7Rjj2UeemL59cACKyQXjaP0wdhn/2e2GHj+C/XcXAo5KOXTUK9MKEBQaAAWAAGAAGNo8BkI4ndwe9eZBg4sGmwAAwAAwAA5vAAEgHSMdqP5eFvWAvYAAYAAaAgTUxANKxpuE2wfjQB+4cgAFgABgABg4JAyAdIB1g7MAAMAAMAAPAwCgYAOkA0EYB2iExeYwVd67AADAADLQxANIB0gHSAQwAA8AAMAAMjIIBkA4AbRSggfW3WT/sArsAA8DAIWEApAOkA6QDGAAGgAFgABgYBQMgHQDaKEA7JCaPseLOFRgABoCBNgZAOkA6QDqAAWAAGAAGgIFRMADSAaCNAjSw/jbrh11gF2AAGDgkDIB0gHSAdAADwAAwAAwAA6NgAKQDQBsFaIfE5DFW3LkCA8AAMNDGAEgHSAdIBzAADAADwAAwMAoGQDoAtFGABtbfZv2wC+wCDAADh4QBkA6QDpAOYAAYAAaAAWBgFAyAdABoowDtkJg8xoo7V2AAGAAG2hgA6QDpAOkABoABYAAYAAZGwQBIB4A2CtDA+tusH3aBXYABYOCQMHDgpOOH4Td/99vwm+8A+kMCPcYKvAMDwAAw8DgYaJKOb37+Sw7Ef/Pj8Le/+3H4ZkE24Ce/+m34h78rf3/78682dPf8VfjF734ZfvE3DzDO4BhAOjDxHoCtBfMCtoVtgQFgABiwGBgmHd/9NPzDr364kEAQ6cjZAgryf/dAopAX822TDmsMgAP2AAaAAWAAGAAGtocBRzr4zl9nLeL5gmyHIR3HRBSEhFB/Pw2/+PkvcyYkk5NjK6uUHwWbORECw339RAiJJ0T0f862/DT8JOlRyjgTI1kYyubINS174tpJ/Qnp+7sfh1/krI7otT3nAPiwLTAADAADwMBTwoAjHezcn/yKAyoF5hJ0+443pCNmOijoU30mFrmPvNWhiYnUKzJLdkVnOgZIh5Hp9MwyXXkiL0b3YyY8Wd+KQP022yOSliWyQE8JLBhLG0OwC+wCDAADwMByGGiQDgr0TBrysx2SXTg+Cj/49kV49fpF+ObrIqCdmaDrjijkfupyDv6aZFB7/b9rozIdg+RoJdKh5fH4St99+QBbwQJsAVsAA8AAMAAM9DBgSYfZomg/GNojHXaLQgzuAjVIx8LnY3qOQrlgCkdgARgABoCBfcWAJR2RFPCzC9+YLMOwg/0WRTFGj3RQRkGe+zgKk7g9wtsr1Jdsb8QtjPxQKvUlz1HQ+W/LQ66RLMmWjtN1aOslbadowqTly/YQX3djUZmWMl4nO5MslMNGwAAwAAwAA8BATTrydgQRg04gd8F0ddIhRKNkU3LgjyRBHvr8ofnJLJMQuvbL8Iuf21/WlGt03epN+slDo0JodBlfc4QmPZQq9autIpAOZG3cPMCCigUVGAAGgIFhDNSkAwspgikwAAwAA8AAMAAMbAEDIB1bMCqY7jDThX1gH2AAGAAGDhMDIB0gHWDzwAAwAAwAA8DAKBgA6QDQRgEa7moO864GfoffgQFgQGMApAOkA6QDGAAGgAFgABgYBQMgHQDaKEDTTBfnuPMBBoABYOAwMQDSAdIB0gEMAAPAADAADIyCAZCOVYF2eRPu72/CxQrt3k8/hfv5VXi/QpundhdANri9PExm/9R8edjj+T5czz+H+fT7URbow7Y11oun6P8G6TgPX56/VX/nKcCehpkun5yFDzmI2muzVP5h8iZ8eS7tj8LF5G34YtotAhVN8E/h+t2ienw9Bvf7z+Ge/mYfN7AoNORvkHRczD6vEIh5sYtjGyQ9H8Pt4PXlbClgJ5s+aIGN9ko+ua/Hm30m/np3Febiw3h0BC9d1zrlPlK7Qm60zVgHbpfKFRGUcZJP2MbqqOqJXcqR7O0xyv3fXvbkH4W+zkdh0rFZpZvSy/Qn5amfYg+FjWxnZ988p3s4SXN9cmrmF891WTfehOnCfnr9P7xcfFl8tGqfyk7VONinGn/ry1lVL9SHrfcfA23S4RYUdjQtNkIgTsJ08jbcTU7C5Fifk0HOwt1zXnRoIbqbnKcF6DTMJudhtjXSMbRQrOsoWmB8QFm3r7rdaqRD2g+P8+ELrsjh44P6i4GNghrZsRXcGmOhNhI0j49CDLRCSI45WN9efgy3qo7R0ZDCnv+4fK58a/pIcpYlrqSjCUJm3G38GHla59zW+qEstmQz16dur21G5fNPYZ7tV9u70r0Ksl6P83A3OQ3TiawFdP18xZsJ3+dm/ze2XTieluzaTsX+rfoog32AgWUxsCbpOArxziaSk7Nw54gEk42TmNkgkjGL5OQ8zI41cek7KQaafLerFti4IMsdqAtiLlixAXjxuKbtDX8XHBdq6cvegbflU6CS+k52DKpyLR3jQk/y0/8qSPo7WZu90HI+N7ZlhhZEf42D83W+e1e2PFa6+QyEs00JqFa3cgdNvuT+Sl25YydbWZJQwNko936MgVO2pkg+9UfHMhYbZEgPuWbrFbmp/PIqB2TbR8pE5GDdx2rs0+io2/bkc51iK6XzGqSD8Fr74iZckF6zj+FiJvYgORa7ftzFRu0xX0z4hoKylpLRXIt00DhnV405lWw2pW1MnjvFTnStzLNSLlirr1nb+PHT/6UN2dDO/XRNcKDmhZFNxEZd09uv0fbNsbTtu8j+uA677TsG2qSjuY2iCQNnN3jRobscm2rlReg08AJFdc/SnRGd6zukGkC0CJY7TL1ouwUjL/R24eCFSi+y6i7UB7R8F1T67ssXXUtdcb5p0woaHbl2QZT+7bEOCrV80SMufLJAxrGxbWSBLHry4l0CFdVLNnP6a/lWX9WmIUt0you40SuNsWUXV0btRf8JXUv9aL30ebRBJng2SBE2uC/BFR05CJs+Vsx0MOESzGnb9uQ70pGxzHYZtFkkdyKL6stYNG5S2f9m0kE24XE3sEOyW77Jc0P3S9lK2VbV857XA9qW5eynbtM5jzgrZInsz3okm2Wdis4GC4noRwzHvgqZ0r6kNhbnUo/llGtazyJTcKyPuv9Y7uRrDEZfCh59vaaNtR4413bH+dPAQ5t0VCSCBpv2chMhKYuLXnzEKFwmd0UlK+JIx9cn4bvXL8N33z5P+8N+AVX/mzuJdAcik5kmL01o/X8OhLLIiG7pGBeAcpfDdydKXmzv/6e29YJUFsykh7ubbOvGd1WtRS8HnepOry2fJ+MSuuYAU49BFme/oJb/qY22F53r4OfsqxdU5TsZr1mMdV3vlxx8XKBW/o72z7ppf7dsQnqq8hSQyzh5HLFPJXvRgkfjqQO7kqPHKKSmqXOxo+BAbMY6kB+03VsyUpmQjjheskvt99hn9I/u8yj84NsX4dXrF+Gbr4s+cjPBeuibEKkj5MM901HN88Z8zf5sjYf6r8vFZ3IUH+n/BdfFdgkfWZ7oro8dOyUf6v6z/QxWSvuufIcH0R1H7QecP0U8rEg6JEtBD5vKwjK0vSJ1BDy0KKmyajHyC4v6PwdM6csdm4tImfzWedSvBAnqR+opeXFR8P/rukq+Cqp0N22DRGOBTQuOXZBSf7GvEjirBS7rquRTf037yLhU33FxdOXpOQDS28sr/9dtrE2dPmpRzX2QjpoYtnzWKsu+aJOe3H+6+y137i3/kZ66nLd4LtwDs9Rn6ac/tmwDsb8cs842mEv9vs5OlrdZ9L/ts8ZR8pXSheTFZ2E8IVZ1RDc6tkhHfBBcZ0Gf6y2Wone5yUhl1TxvzIk8Tu2b0qf1GZeLDeUo+uv/rW0Uhrs4o75VPYXjVv+xrLJhad+V3+hX+sdR+x3nTw0Pa5KOdEcTMyJ8XvZ35UFSRzDiJGuVWVDRJJV0Oi0e5W6aJrJdbI0zmotImfymbgpOQg5YDgf6vnzRs+7TLixSTx2bunGmQ8aa9cuLL7UnWcUeXKeWT+VtHVzdvDjSwq7IEeknttXyY3mRr22T9c2LZ0tXtgHZVwiNIR00Pk1CqK+OrVrlMmYdZCL5krEYcqH84crfT2/C7cz+Sidiwty96vatc7b1rUnn9wKoI3dk86yz7TvqYWxEctw80D7zD5LmMXwMt7ObBzzTUWc25NktjwX+lZrfcrXj8v4s2OrbrNShvhhvcQ7r8Q9gltqX5y1U+4xh0bFhY1XH4E0wq8ic9plgdGjuevvhf/EDjk8RC2uSDgIDkQvJfNC5/7lci2C0yhyw0qLB++8fzQODHFDK3a4J2M1gRYtHyRoYB8aFnvuaT69Kva58XqT4mZGkgwQD1Zdcj4uh6kvKzd2zuS56MiHg+jeBHoItafsy9nhd5DfHTnZ14yc9JQgZ2YqAJEIm/dsMgLOByI8LMl8zPqnsImMUny9POpokII3HB4ESnLQtxdf0fgUX2JIttO5NeSrwGCylchvUaIw9+Y50JKIQ5Q/YjPtXGFD2N9fEx9rfQkbcfPC2a42Ly2jLVJ7nEP9xlvP/iz+Nl/m/5M/iHf4yLr1vjM0t/oq/lJ3nV8FgVskx85z6VdcI73ITQuON/pftr2RPU5auSRt7reCc/CJ1qvloxiY2xbGPQdjmKdimQTrg2NUc6wKYLFiy8I+wsNiFbdf8R/Ypi7C1rSNFI9jKyt81W42vD2GnBO8R5VPAV6QJfhnR9phn5h0zwN642APp2MAEtHc5rZ+5juvUfZpE2XYjkrR17GMyCXIHHI89QrXjPs93+Y972FJqAAAgAElEQVSkP0gHAt8G1t515jLaPO7aBNIB4GPxAwaAAWAAGAAGRsEASAeANgrQcHfxuHcXsD/sDwwAA7uAgZ0iHf/0T3/MbyHkBynVQ3MmpY3yXbHP//pf/w9IC4grMAAMAAPAwFIY2CnSsQssDDrgbgAYAAaAAWAAGNgOBkA6wE6XYqeYgNuZgLAr7AoMAAOHhAGQDpAOkA5gABgABoABYGAUDHRIR/rOivkGi/32in9RkH1FsnrVeceR/ieI9l0B6SVA5meU9sVA+s2W+WeX8txH+v0/l6u3N8rP9PLPBe2zIeUlPp5588uH/PX8joPeC528nKHxyDXfRr+0yMiRnzqmFyOpdx7QuK09/Xjw/yHdWWCswDswAAzsCgY6pOM83E1O3Rdh9WuQ6c2i5YuS/Npj/7bCYSdTwM5BPAZaRQ7iR7jobaQSWKkv/SIpDrQSWHtBNpbPVQAmOSo4c59KbocgkbMigRFiEOuRPqmte/Njdq6Rx6SJx9wmMbldS56zUdQnjoX6+hTm3U+9D/tBy8Q5bAUMAAPAADCwTQw0SYd8HZbIRPmmiiYdR6F81InKF2c2/CAM6UivixYScjHjYG7raNJhScAg6Zgq8mJIAAFLEYcBwhF1j0FfkSAiGkJgliId+lsrq5OOeoxMNq7fpeNl+7Pv3u74HwsKMAAMAAPAwGNhoEE6TsMsf2NBf7Zekw7OdDAh0d9koK/P0jcYFpMQQyhMQFff4zDBXJMOG7TjXb9srdAxkQEJ1HSMhOYhpKMiRur10aSnli/ftzDyHMHJbRSRUcQnjkllVoy9Uj0u0+SD+5JxPxaoIBcLGjAADAADwEALAw3S0SMaRDrKR53uJifpoRNNOsjI9UfdTl68DK9efxNOVFClgFkCtdri6BINCtqljWyt0KB6QbaUJyJjSADp6oiA0q9lrEIEJNAnUBmdFdAimSo6SybH9C3kQxEMGVP5CFb7K7KWdPDn7ckuZdxKlwVjMzqh7igPVMHmwCcwAAwcGgYq0mEfCGWSwRkNnemgjIZkM/TXZglAy5OOVhC2ZIQDNtdTmY4YqAtR6QVZXR63bGgLQrZEYmBdjXTkz3F78jJEOlTWpXxW20+0Wo9CcLiuHguDVIiPHKkekyvzlU0QCBAIYAAYAAaAgR3BgCMdmlhwsKNnNziroa/x9sqX9OsWfpD0NDm1Jh0tJsd36a3ga7cbSrBVpEM+GZ6yA6WO7c+Uv7sKt7Obh5GO9Nnt25l6OJUcuQTp4KyK2pLRAIgZkUKiyF6ku8508Ge4i23i9UhoNOmgdjeh0k/LwjkWH2AAGAAGgIFHwoAjHX6rhIL4WbiLz3ho0pHKn5+Hi6h4IiF5+0WyIJYEaPLRJB0UvE0m4ijk7IL59UoqT89OxACstl6kD0M6hKiY/usMg9axdc6yLEGIpEPLbz7TkchJlE9yy7YLbTPlrI/bktHXzDjzOCzpYHLSITePBLKWHVHWnxuwDWwDDAADTxUDjnTA0U/V0RgXsA0MAAPAADDw2BgA6VB3/yaTYDIRLrOh2jy2AyEfiwgwAAwAA8DAvmAApAMEAnubwAAwAAwAA8DAKBgA6QDQRgHavrBw6Ik7RmAAGAAGtocBkA6QDpAOYAAYAAaAAWBgFAyAdABoowANdw7bu3OAbWFbYAAY2BcMgHSAdIB0AAPAADAADAADo2AApANAGwVo+8LCoSfuGIEBYAAY2B4GOqSDXgT2NsgbR9kBqUxeAJY/CsfK2denL/dysPLtFf0yK3rZVXlxVvnGinuhlrwcq/EyLf1CLYBne+CBbWFbYAAYAAaAgVUw0CEd5+FuchqmE3njKBlVv5GU30AqH33j16CfhQ8rZA3MG0nVa8Djt1fyx8+YaFTfXklvFy2EhPRb/e2iqxgKdTGxgAFgABgABoCBh2GgSTouJpypIDLBH3sjIZp0HAX6JgtnQqh8cWbDO8qQjkQibi+JOJTvi8Q2+bsm9lp8kVcmJ6QfSIe3Mf5/2OSA/WA/YAAYAAY2i4EG6TgNs7x10vvMPWc6mJDo77XQ12fpy7SLSYghHTHTcRMu6CjbJpI1yWWadPAWTP5eSawL0oHJsdnJAXvCnsAAMAAMbBYDDdLRIxr2mQ7ZWpkca9JBytVfmT158TK8ev1NOBEicXwU4jZKftV4es14JhhqkLmMSEXrWQ+pC9KBySFYwBFYAAaAAWBgFzFQkQ77QChlLWSLRW+vUEZDshln4S5/bZacvDzpsJkKaquzGQkwre0VKrv330MB6dhFgEEnLHzAADAADAADggFHOjSxYCPRsxuc1dDXeHtFft3CD5Kepp9e1qRDhOmj2V5xGZDygChnN24vn4XJ8bNwe/8sXBzz+fX8Wbif8Tld4+ueiMDR2uY4Bx6AAWAAGAAGHhMDjnT4rRJyzlm4i894aNKRynOGI5EQ+TltzoL0ndsjHZztoG2UZ/FPCIcnHZN3z8JckRC5fv3OEpHHNC5k9/0P28A2wAAwAAwcHgYc6dgFA3jSsOn/d2GM0AGLDTAADAADwMDhYWDHSMemCcai/g7P4Zjk8DkwAAwAA8DAY2HgEUjHIiLwmNcBxMcCIuQCe8AAMAAMPH0MjEg6HpNMrCp7Fx3fG8Mu6gqdsHgCA8AAMAAM1BgA6Ui/fJFfwNhjbbDxQdQjG1K+CzpCh/FxAZvD5sAAMLB/GADpGCQdEtj1cR0n6/abPl9HH7TBYgUMAAPAADAwPgZAOlYmHZsmDQ/tb3zQYKLC5sAAMAAMAAPrYACkA6QjvdQNE2idCYQ2wA0wAAwAA8tjoEM66EVgb9NXZKWzVCYvAMsfhePr9vXp8op0aUtHe0dPbxfVbxS9mD0L9CKw91N+KZi8HCzXueRyefmX1JM3lPr+4//pBWJVX8cNOfNn4X3SUfqWdvKCsqhzemkZXZtPy5jiG1LlWuqLxiR95GPnmoyLZIg8GROVyXUpK0dtY5xj8gMDwAAwAAzsLgY6pOM83E1Ow3RyHi7yK8r1G0n5DaTy0Td+DfpZ+JDrtgZcAjQFTAqk83l5rbkmHTqY5yB8yfUlIF8TSVHtSxBWcoh0KDKR+0qkQ8uR9kI4umSGyI/qk9qR7q2+TJ/ule0yXqoTZUqfrv94zbWVfvnYsjXKsOgAA8AAMAAM7B4GmqTjYsKZCiIT/Pl6UlyTjqNA32Thb69QeSuz4QeryIB8R4WIRMoWSBCmICtlFFQloEv5LQXgd8/C7fRZoOxCPwPA9TTpkL4k0Gs5EsipTyE2UmaOjhTQNd2vqaszJ444yHhjffdKd90fEaUuAYr9ezvjfyw0wAAwAAwAA7uJgQbpOA2zvHXS+8w9ZzqYkOjvtdDXZ+nLtC0S0iAdRD7UdgMFeyEXErwp6BKxoHK6TgH5mgjHu3RefWtFyWlkOoSkUH95y4O2RUgPHfzTOdUxJKRBOuQ7MFRX+hf96RhlDZCO6nqSTeNsESPdNybWbk4s+AV+AQaAAWCgxkCDdPSIhn2mQ7ZWJseadJCA+iuzJy9ehlevn4UT9VyH3MFrMiGkQ5MBCfhSb6KCfiQgi0iHPGfhyAP1VwV0TTqSriYjQWVKvg3+KbMiBEaNtSIVKTuSxylbK6oNyaXrw1kOIli1U1EGmwADwAAwAAzsIgYq0mEfCKWshWyx6O0VymhINuMs3OWvzZKTVyMdMUsw46yFkI6KDKRsgRAQCfYVIVBBO9YhEpECegz8Kog3SUfa9tHZikrGEOlI8v0WTY90yHiIgFVjJjkuOyLjtkdMrF2cWNAJuAQGgAFgoMaAIx2aWHBlenaDsxr6Gm+v8DMdR4EfJD1Nd9016WDDq20PeaYjBekY2NWvV6oAnDIDEqQl6FaEYIB0UBsd3HukIxIElXmoZCxBOkiO1nUR6YjXFSGK4wPpQBYHWSxgABgABp4YBhzp8FslRDzOwl18xkOTjlSeMxyJhMjPaXMWRLOcPumIWxYpUPfIQBX8j4/CxeyzCe5CRvJRZTpyIHeZj9YWB8nK5YpAEJnQ5UKOzM9lG1mLRaSDdPPZkWgTZDqw4DyxBQd3fnpNxDnwcHgYcKRjmwawpCMTA5+dGPx/Gf02IWef+ljGJqiDxQ0YAAaAAWDg8TGwR6SjbSzKdtzft/6WeQhzn8hFT9e2XTC5YBdgABgABoCBXcPAHpCOTYCmF7CfQvkm7IM+dm1iQh9gEhgABp4iBkYkHbsEoKdANmQMu2RX6PIUFwmMCbgGBoCBTWHgQEmHBpAE73096rHgfFMTA/0AS8AAMAAMbB4Dj0Q69jXA74LemwcBJhZsCgwAA8AAMDAGBkA6Bn8tsy2SAXCPAW7IAM6AAWAAGNgtDHRIB72TY9OfttcD5xd16Tduyns45EVZ+X0Y8q4KelmW+raJ1Bt6Tbh/30bsU734S793Q17m5d8Tol/01XsfRyxX/fo+6p8Ha1vgHIsCMAAMAAPAwGFgoEM6tvFpe23QkT5tn7IYkaAIeUllRBTk5V7ywTZ6/bkmDEKEhDRQG/2KdF1Or1uXa7oPqWOP2hY4x2IDDAADwAAwcBgYaJKO7XzaXhuUScfFtj9t3yMd/k2l6dsuREIyYWi8hnyIdFzTWBKxyX10t260LXCOxQYYAAaAAWDgMDDQIB3b+rS9NmgiHdv+tH2PdDQIhbx2XAjDrdoukSxF3EZRr0KXTImQETrSdo/0Ie3qo7YFzrHYAAPAADAADBwGBhqkY1uftv8mnOTvSBTSQQGanqeQrQz6Pz/Pob57IvX0p+WpjWxp1IG9PAQa+9TbKwtIh3/2Q/oWciH/yzGXp8wNyRNCInXs8TDAhUUEfgYGgAFgABjQGKhIx/Y+bd8mHVv9tH0v07HE9kpFVNJH2VokJ5OOlLm5AOnAh9oywcaCoxccnAMPwMBhY8CRDv8l2aOwuU/ba0OXTAdlAGKWYxuftu+RDv9VVyIh6ZcxOktBZEJnLDS50JkLXU7tb2e2na7L59oWOMciBAwAA8AAMHAYGHCkY58+bV+2ZOqgXrZW6ForayG/WJGtHMlgaNJBbekns0I8iFxIfTrqcmkv/cq1tm6HAS4sIvAzMAAMAAPAgMaAIx3bNI4lAu1gfCh1tmln9K0BjnPgARgABoCB3cHA3pMO2prR2Qd9PvTisMclPbsDAExG+AIYAAaAAWBgLAzsPel4XPKwbmYGAB8L4JADrAEDwAAwsDsYAOnovsBrXUKxTLvdAQAmI3wBDAADwAAwMBYGQDpAOvDzVvy8FRgABoABYGAUDIB0gHSMArSxWDTk4I4NGAAGgIHdxQBIB0gHSAfucIABYAAYAAZGwQBIx6ikY3fZJ+4M4BtgABgABoCBbWOgQzrozaRvw5fJqWI+qYzK47Wz8EExQ/v69Ddhqq7xIOwDlvTSrXv1PZTet1dyHfpeSnprKP1iJb7w654/sDb0C5YoR32kjb7zQvX1S7/khV5yTa5n2YmY+L7yC8Aar1Vv6wRAbxvQ6B8YAwaAAWBgdzHQIR3n4W5yGqaT83CRyYN+RfpJmE7ehrvJSSQlkXBMLAmpnV6Tjnn6KisFaE06cjBP5CCSAfqY2pw/Dkf1r+m16ap9O8jb163rOtRWf4qeXl2eSUf6cBu9gbR61weRH/8FWpAORU53F+w1JqErbAIMAAPAwJgYaJKOiwlnKohMzJqkg7/JwpkQIiOtzIZ3ZE06LlJwHyIdREaIhMjryYkcUGbidvos6G+eaEKhzyk7URGHRBKIuNC1eFQfaSOZ9FpzIUK6P/2V21wO0gHSkeeJxz3+H3NBgyzgDRjYbQw0SMdpmOWsRe8z95zpYEKiv9dyzlsvTRLSIB3pq6zvF2Q6iAAQ6aBMRCQERDgSKcjfPOk8m+G3RGI2g0gCkZdLJi9EYOhcMiyUBSGdIsFQW0CRZCDTAYIBggEMAAPAADCwFgYapKNHNOwzHbK1MjnWpIMYFhESm/k4efEyvHr9LJwoYiAZCE0miBDIsxryOnPZ8pB6OtMgGYmccVD9S5nIkf/jUUhH2r6JxEVIB5EKRTSq9iAdawENdx+7ffcB/8A/wAAwMAYGKtJhHwjlh0Y5o6Gf6aCMhhCLs3D3XD/7sRrpiA9x0jbHgk/bZ9KhiIW0MYRCXafyijTQdUU6cttENqhPITxyFOIT64J0gHTgDgcYAAaAAWBgLQw40qGJBbO+D5M36YFRfY23V+TXLfwgqfzSpSYdzJ7a2ysUyCN5WEA6WgSjVZZJRCIfTdLhshmZTJAO7hkQIjuy7ZLryfaLEBw807EW+MZg1ZCBuzdgABgABnYHA450+K0SUvQs3MVnPDTpSOU5w5FIiPycNmdBegP9GG7vb8ovYy5vwv3953B7eRTeTz+F+fT7KohdzPi6Bo8ts6RGyAeRCMlY0DFmLXqkYz78yxTfVyYjRDpacoSU5GPPHijXfsU58AAMAAPAwNPEgCMdT22QbSIihGT841OzL8aDhREYAAaAAWBgeQzsPemgbAdlSeo/lUnJmYbHJiHLOwYghq2AAWAAGAAGnhoG9p50rO6QxyQemECr+ws2g82AAWAAGHgqGDhA0qHBOzYB0bJx/lQmEcYBLAMDwAAwsBwGDpx09Iy0LTLSk4dyTFhgABgABoCBp48BkA781rr6pRAm/tOf+PAxfAwMAAOPgQGQDpAOkA5gABgABoABYGAUDIB0AGijAO0xGDVk4k4OGAAGgIHdwgBIB0gHSAcwAAwAA8AAMDAKBkA6ALRRgIa7jd2624A/4A9gABh4DAyAdIB0gHQAA8AAMAAMAAOjYACkA0AbBWiPwaghE3dywAAwAAzsFgZAOkA6QDqAAWAAGAAGgIFRMADSAaCNAjTcbezW3Qb8AX8AA8DAY2AApAOkA6QDGAAGgAFgABgYBQMgHQDaKEB7DEYNmbiTAwaAAWBgtzAA0gHSAdIBDAADwAAwAAyMggGQDgBtFKDhbmO37jbgD/gDGAAGHgMDIB0gHSAdwAAwAAwAA8DAKBgA6QDQRgHaYzBqyMSdHDAADAADu4UBkA6QDpAOYAAYAAaAAWBgFAyAdABoowANdxu7dbcBf8AfwAAw8BgYAOkA6QDpAAaAAWAAGAAGRsEASAeANgrQHoNRP0Tm++mncD+/Cu+Bj6XxsbrNvg/X889hPv1+aRkP8emutr2YfQrX73DXvav+gV6bxWaDdJyFu8lZ+NBZbD9M3oQvz9+Eqbp+MXkbvjwvf7N87TTMVDnVKdfOw5fJ6UYWG1rs9mHhWknPd1dhfv853Me/m3CRbbpZAFzMRIZb/EeSv/0J/THc3q9uv9UD6Gb9stguq4yL6oqfNxXgavmr26xHOuq+h+2hxjdEFAnTQ9dXmmOk+8NsGe3V9Qvbhub/7SVjy9b/HO5nH836ydetTnp+39/ra8pmSQeWk8pV39TH7WVdn3QbXHcvb2riHtcVmo91fzLOvs7FJnFdzL6s+yp62TZSXtlKY4P0Jpvk/see209b3oqk4yRMJ+fh4vg83E1OMuCJdBQycRbunlMdMhyRDjn3hgTpGFpIeaJ7m234fz3R3II7inwnc8ge61+jBWl10rG+vA37qGuj5cdFC6wstpsb1/LyV5e5Zt8DeCYdNovpB5KOHJA/httWcKPrKvCT/taPZKNCSCbHpM9NuLi8Mb7WY46BNsvq2ZjKP4U59ZWwp/tgOVruEN65L53FiTrEcfXkWz9pnUmPQRxnmxadqE2xI8lk3aMt52peVNhhsiJEaHUMFx3Q1tpiRdJBWRDKTthsSEU6cqZkk6TDgVRNygggSdFSuZmMdsAFAAzAyGgT02dADzBjswg4fXrBIekjcsqksXIsuOmaviuhMaSyaWLh+i6DJky+Y1owMbWeyobFLkpWI+UbFwGRlRewARvPr8J1zqaoMTm7lPGzXa9peyPJKdfaNiOdbqfKBslPccERXeVofNjSW+FCjy8uSjfhdk4Zg5sg+rFuVi9zh+TGqe82tX4FFy2dpMzJ0WRKy9F694Jt9P1V3N5gO9sgI7ansUrwkYBTX+vYLGJNXUs+iGNV+uqxa5tkOeKzRTivAofY7ShM/DX6f9Ye/0TpZsfPATHrpTMHuo2zf5Tt1qQ4j6he1MNmLOJcdOSBysw6l/yabSf9uHGSPfP8oWvZnzzPim/FVqlcyTd9xHVI9anXk8Y5tc06mrY9+ZZ0sO0Yg7Yv0VcdyQfG9g0ZVGf2MdnyIxM10tvZjextx63kNMZp10/UHbLHSqSDtlY4o0EZj7LFYrdXSjlnOsq2y8O2VxyAEnjMZIyTSgW2AXAYACuwmvKhSaLkdw1sJrldNCygaWysN5WXRY3PedKmgCMLcExP6oAgQKd6C2wQ9fJyysRuyz8KcTE2k1pk9o40LrXoKDtbm2nfujZqMejZjImQ2KLYkmXovnt6NsqV3NhPstntZfGDDwIyplJuddHYKnVINvcZg0PLN8nmuv1E+9/pGu2RFlbvy3zXR75QQdPqo+yhcN6VL/PM6UH2MG0a/m/LXcZnDZw35Nc+SWNLdpaAnPWM5YIli3mxK/ep5Du5tl4KaI50iM/JPyUoF7u37GLLLLboWiHAZf7TuGSMVi9qb9cArie2LxkY3YfoLX2KfbtH7XNj2558G+yNzslnGrdGrpbVIRJCLv6Ssn/Zbs6H1C9da/nGyBTs45h3PhbZZwXSYYkGERDZYqkyHXlLZd1Mx1fhR69fhlcvvlIDkcmQJqZaDCMw4wQqk23RwPMiQ2DJYFULSQKRBp6efPq8J0u3pTrl/3rC2YlU68GTvTc+31+vXlnUos7KhnYMLfl2MbD1Xb95Ajqf+UBpFj1Z6H0b6duPkRZMHmexK9X1ui/XX7W4+EUo/1/613IJDzrAc38ku/iiYI76sPWp7fBC7sdR/ic9tOx4nslpx29d3zNOTX+xryKPfe//798tZtvmeSY+1XOilBlClbFE10mmtluxbdQp+0j3Je0EX+maq5t9WdlFxln8zuMv/y+y/9BcKW1lLDzGbDM1/lKXbVDwUnQhWXksifRlX5obBhlX31bUD8mwax1jt8j27f3/JCeNzdi2J5/ltXVWviMcmPHodVzV83WS34V0RExRHYcH8Rnb3GFH+UTq4ej93v9/BdJBz2rYrMWXtI1iSYcmJ+ORjvn0Ku/XLQMAO4FlwtvJS/3oCRxZsizAHswNIJq2pq/+hGPdaz3qYFqcGgNeDjKttqWusY1ZBHSddh928dH1e+dunDSxY3qX+td3eLqePtf99sqdj5YmHbrvxrlfhPL/xTbZv2THnLbW+vA46wW09GH8QRiKNtKBVRZXP/7yf9ajgUHqv+m3nu+jfJkPaSEXzKsxNolBtlGxJ+mWxy/BR+nZ1r2MTdtnIc4b8ql9U4arm+tUdhFdvM/K/7mtGpfWe+hcfEN95CxUR+eunOizFma072kcvTlX/GX8Sv3OPjr8MKaXJx1FBxkr20PsqmXzeannddZ1G3qQ78y63JCR/KttGX89dFk/ZKzrDPkQ17RfFp8vTTp0ZoONXAiFJR3bepCUACSLIYNRJmkBB5f7CREXK7NglgXDA4bqlrsM3x+1qx/W4j6sTrFMT4K0MEjfVo53VEu/Vhm3M32RzGwnvk728WVZv0xWtA5tWbEfM6l1m8b4dWYjLaTsM+q/3NmzfnI3Qf3Iue6fFy+xn/Zb8T/V97pTf4Ib25/uozp3QUnSsu9V/1mu9nO6G496+j5UUIpjbtq+p6O1mcF0xFbbZjQuquvnRMzuteSbvlhmy2dGvoyrGq/3RT22bEPpIx7bPluE8+IjLaejg9M162HGz4RFApmWH/0nuHJtmljqZLLk57LRntof6pkK6S/raGzVIlVlDlG/4nvWWXBS6kj/fLTlF7ObcKv64PlV+rRttd3VeQz0N25eWzm6n77Oqs80z2Rssb2Zh1xX+0wyZdTG2PLdVbid3VS/bNJ6aP1wrv2w+nmbdLiMxuyYshf6FyrJoals7Wc6jBz9LEh7IDxpiNF/Ctf0QGWapB5A9FClDk4EHn0nSqApfckdggQmmgxSZvsp7aSu1jO10wtHDFCpr/lVuDB7hFaOLGwM6NZC2SpL8uOil+TEh+OsfjxWWxblxMWg8RCbCqysTxkn27KMqbzHojX+gTGS7GRnzlItWgxJh3Z/xv8N3Y2vjX/KuPI4tS0FB9SGyiPhKn4ocqlMMMMPmTL+dLm3mb8m42/oJEFG2Yx/wljamDG6ANdcPLu+Z5LCvrHzTD9gaeT3bDYwz7y+JE8HEHNdfKblaJzrcu0zsltvnNmfbO/iS782FBvrLNR8Sg8hljll9HVjkXbd8ZHOnswvTToYR7pvwrL4XI6Mb13XzaWsM5WrMSfMlf51HwNYFczGY5IlftRl4q8sv+hudfbzRa/N9VjK+m+vyTi0v4VIeR9Y2y07VtTLa6nBQLFLg3SUi4sa7+91N7HSJC1APQQbjDHG2s77i5k17FUFPLJHCVRP3xa1/2khH2+eUaDaZXuXhzUrLFTYWQN/nUW/koV66tlBsfM65Era4jiEsQMlHfpuTjIErTt+gGcIPIuv1UFncZunZHMav2RA+Ch3WodiByIZktGKR3O3+5R8vemxlDv73cZMjfHs7331dcru+MzHoczZbY/zYEnHtg2L/je9CKM/YAoYAAaAgX3HAEgHUouN1CIm9r5PbOgPDAMDwMAuYgCkA6QDpAMYAAaAAWAAGBgFA/9/e+evI0eO5et6FhlKoaeBAi7Uxgi6tyFHguYJCuM3FusK4y4gQ2prHmEdGYNCPcAYA5RVabSzY5RTCezYWidlLNoqWbw4JA95yGBEZGZFRf6pzyhEJSOCfw4/kr84jCARHYA2C2iHqLjJE0+CMAADMDAvA4gORAeiAwZgAAZgAAZmYQDRAWizgMbTxLxPE9gbe8MADBwiA4gORAeiAwZgAAZgAAZmYQDRAWizgHaIips88RSIV+UAACAASURBVCQIAzAAA/MygOhAdCA6YAAGYAAGYGAWBhAdgDYLaDxNzPs0gb2xNwzAwCEygOhAdCA6YAAGYAAGYGAWBhAdgDYLaIeouMkTT4IwAAMwMC8DiA5EB6IDBmAABmAABmZhANEBaLOAxtPEvE8T2Bt7wwAMHCIDiA5EB6IDBmAABmAABmZhANEBaLOAdoiKmzzxJAgDMAAD8zKA6EB0IDpgAAZgAAZgYBYGEB2ANgtoPE3M+zSBvbE3DMDAITKA6EB0IDpgAAZgAAZgYBYGEB2ANgtoh6i4yRNPgjAAAzAwLwOIDkQHogMGYAAGYAAGZmEA0fHp2q1XX2YxNop6XkWNvbE3DMAADBwWAw3RceG+P/9g/i7cpVeAIXyV1OBrt3p+4f5r8Yv7vnhdDdoX7vvivfs1Xdst9OXqd3d/n//Wy48xjo/uZt0K/+LuzPX362v3WeIX0WDD4/93V900S/iq+DrCQ89/dTefJC79rXnTcDnXk+c6b5pGHV7kOcc1XoaxMnK+rHPsgT1gAAZgYJ8MtEVHR0RIJYmQ+MV9S+eC6Lh88d59e67CJFTm5eKD+7Y4r4RIWdEiOtKg6gfhMIh7MaKDcxzow3Uy6N9GARQG5ixUJG45b4VAmV5p5HC/xPt5+TXnw4gkCe/Gr+mH+1T49OZZyqXiqCiL5m0gz1e3TuMv8673csQuMAADMAADx8XAlqLjtbtc/OKWfnBW0XHulosPrvSA6DX9xihER/QU3F1ZYRHvlcHXi5DynIiCEK5pDAzgRkwEQOXaIHouV22h0hUjZfrBwyIipAqXtDTPheh45qTMXSHTTt/HnwSLlpEjHQwMwAAMwMDxMtAWHX3TK97LcRG9GCo6nrlfiymW8akVAaYQHd7Tcesuq0Hag5XC7OCePRUZPjnfM4B3REcUBn5aI3svclxV/vz9Nv3o6RAxlPJnINAwPab76/wN5blMz+aN/42tW3VL2KCXEX7gBwZgYF8MtEVHmkKxFSNiQt7dEM+GTKdk0bEwUywiQOqplfNXb9zbdy/duRkM/JREehcjDsbFIB3TTmEyCOv7FLXHQK7tH8Bb6QeDmzh1SkfSi16QslLMtZIP9UKk/BlbaViMS99dSdNJyQ79ebb5K70jJp0UD2FlXWEP7AEDMAADh8jADqIjeDZWhegQISJTKnosK7s16BeejjR4yiBceR50qsJOY0hYx6vRP4C30veVoeKgIVi6+Wvkzee7Ea55TvFHz0hdtka6GZJGvMlOpX3zPYRjCxiAARiAgcNlYCfRsRDBsbjwX6+EL1uCEPm2kKmX4a9WFIbuoB6MJOH5yV4GXn3h1A7C8QsP9U6kwb+evhgxvIgCnSKpRMzoOx1GAPTm2YgO/foll03yJmXqyXNx70g5TF7UvhyxGQzAAAzAwKEx0BYdg+90hEqUL1S+F1+tyFcs41+tqAH6RIcOzt0pCSs69FNZ6xUZGMA7g7Jcm6dqJK166mMb0dGb51o4iAdEp2XGhFJ9b6cMNCZliSMswAAMwMBxMNAQHceR8SkA6wqLXHY5V3ol8rkp0h6NoyNQZk4fkcPLmDAAAzAAAxMz8KRFx/DAr96QnumPiSsi5yVOHTW8L/kaBAi2gAEYgAEYOD4GEB2PJh6ODwYaMHUGAzAAAzDwmAwgOhAduA9hAAZgAAZgYBYGEB2ANgtoj6mciZsnMxiAARg4DgYQHYgORAcMwAAMwAAMzMLAiYmOL+6u+CT1OJQfCp16ggEYgAEYeAoMNERHe2v7sL+KXfhLrgsbu4U1O2TdjvBnl0H39+m6H8XCYbKMer4nLLEu0LXTH66M/MWHX9+jIzy6X6LIOiG6Fogc8+exZVw5XOOI96U0qvC4/ke4L8dVrwMyXB4aH/aBARiAARg4PQbaoqO594rdTdb+/8yJ6Mi7zMoiYbrLrAiIvO29Fydp/xZ7jzWs7vFiw4b/TyuCXt0a8ZDvaa25USxOJgtxxZVBvRhJK50GQREEg/yvi5EFMZEFiaQVwprigjU3ZnHb0UFl5rEFtoABGDhEBrYQHVKBIigu/D4r2TNRi44sSEoxIvfrJnH5mq5RthUdWQD0LfbVCi9ERxIMVlhEYHUfFbv3ywuzy2yaBxwQHawuiuhInNARdts8NsEmMPBUGGiLDjvtYTwVYpQwXaKejABKKS6CMLlsbv4mYkPv1WmU7AkJRtdwnXqpzzfg9J4KmfZoL+RVCoyY55VZ+tzff+suW+IghVlB0hIYrTDNq71Xwzg+lUZGOWEdBmAABgIDbdHRnF4JN/gpkjR9YsNUJKiosAJDgWuFRZGR0hz2dPzhp1fu7btX7uWPGqcew6BfvNMRxUhrysNPo6T9V6JYSQJD44x7vPj3N0Q45PdAyqkVuX5IdMj5cH/3PpMWT8N4RGAABmAABk6YgS1Fh76jIcIgv1RaejryINoN1+mVfE1QfxKuYmVX0aHehO7gP+rpSBWscZj8taZXJKzjVemmm5VtI96UpkmLMDobGIABGICBE2ZgC9ERvjbRF0ZFUOhXKl1xoQNpV5zYd0HyoFy9fJq8HhrPJkf9XDZ4FKx3Y/ydjhy/CJTsjbBxWeEQvSrphVO5f0B0tDwoJwxVrtdsV8KwBQzAAAzAQFt0NN7pEGFRCgYRCuELlH7REV4y1U9p8/1BwKTwGE8Actt3OqIAGJj62EZ06DSIfk6bxYsVHXHaJX3NIiAhOuhQ6FBgAAZgAAaGGGiIjiM1WM/nslJ4ER3Ze7GH8vHJLO5SPFswAAMwAAPudETHYGWGaZLuexiPLUCyFyZ7TB47TeIfUtmcgw8YgAEY2B8DT0R07M/AwI3tYQAGYAAGYCAwgOgY9JDQUGgoMAADMAADMDAVA4gORAfzrDAAAzAAAzAwCwOIDkCbBbSpVDLx8MQFAzAAA8fLAKID0YHogAEYgAEYgIFZGEB0ANosoPFkcrxPJtQddQcDMDAVA4gORAeiAwZgAAZgAAZmYQDRAWizgDaVSiYenrhgAAZg4HgZQHQgOhAdMAADMAADMDALA4gOQJsFNJ5MjvfJhLqj7mAABqZiANGB6EB0wAAMwAAMwMAsDCA6AG0W0KZSycTDExcMwAAMHC8DiA5EB6IDBmAABmAABmZhANEBaLOAxpPJ8T6ZUHfUHQzAwFQMIDoQHYgOGIABGIABGJiFAUQHoM0C2lQqmXh44oIBGICB42UA0YHoQHTAAAzAAAzAwCwMIDoAbRbQeDI53icT6o66gwEYmIoBRAeiA9FxcgycucWLh/5N2cmO5WXKtIhrqsGBeGDpMRhAdJzcgENDeYyGcthxjg3qU5/flLFN0900Pq47bA6pH+pnnAFEB6IDT8fRM7Dp4H6o1413VHTm2AgGToMBRMfRDzinAeKpdCiXq9/d/frafZ6Vq0MVE5vmC4ZPhX/KActjDPSIjgv3/fmH9LdKHagNv3CXMfxyka+V+74tzt3ixWu3ev7B5XulMiTsF7dM8T1yBX26duvZB4Bpy/R5+dWtlx/35o3Yd/oWYBnQ766mta+Nv/j/6nYnuyM62kLjZn3mLnvfM+mvU8uf/b+oq0fsT6ZN84u7u79N/eZGZTiBPmyjcj5iHZJ+f/vah20aokOERUsYvHffTPivi1/c98V79+uLZ05ERxYX9rqLdI0ULtzzer4B9AQa7LSd3vbw7Tt92yhmER3CzP1Xd3N17W6uZJCYUejs3PG2B/qHv0z68HgvV2fufnXmLpfh73595j53xEcfl+UgPT+LZfqWxd3+3z6+WZjfmbu+eiN8Nz6eht06okMERPBUlAYQwVCGn7vlIoiTUnRIeBYhOT7xcmTvyOSVcnXr7u9/j3/xaSKKjhtxeftz9ikjDCh6j3+CbomUFPbF3a2vXY7rq7v5VNqoUya5d3XtbtYbpq+NvyjL7/mJW+Kry6j3vAjlKb0iQ3lulF/j6kv/xUdTlk0G44H0i7KYMvo8tPNmO2AZgO5FHEgdDMVVlSXdI2I5cVGnr+W0vAzUdZV+Mb1SpG+Z0TQCG7neBmym9dM59osDGfRvlmfu/j78rZfh2s/LM3e3PHPrGC7CQESKhK9XMVzuXYf7vJfiKggIDZM4rffiTuO6P3N3VyZPct/9mdO0u2KobdtaZITf114I+na7+pIeYAIPsZ2pd1PqZX3r7nz7u3U3nhnDra0bvcfYtpX+3dK0QZP+wsZVeDPKer635+w9jfQ9161wk8dOn8O5xAS2aberfdulEh1ZSNQZK4VFKIyG6THcI54OKy7CbxEopWiZ0CC+028MEHEw0A5dBpnwf+gIsqteBjkZEEKHL/PxaYCTjsF3LuWg7ju52OnYwasjYsyT8nj6OoDmsuSOT9LP4b6TKzqkMn+hLsqwnOe+8g+lb2ziOzaJ2w6irfos0+/mWe+R/Ghcdd70GpO+76yNLYqO1sZV5jHb/5nLdpX4TZqemQd4OvxAp+902Lzkckjd2LwU6VfiMddZeX/ZPs0AX3kRvKdBvQufgpgQoSDiwooGERIiFFJ4vFbC5NzNpzO3iOLB/68CJYoYvb8WFLt7Orq287ZIzJm6FR5MW0g2i+3/7irUr7TjVO9FPQUeQjtXO/elr9yZ9H06Gv7MWc7LepZ74nWj6deMar44luxjj2OzRyU6+t+5KIVFqGgNk2N+B6Q7NRPOWyESQfnx3P387o37+afnRp1Kw1TPgIqEcH3odPRcbuSpIykGnziAVp1REB2m8cd7pHO48+50iVfEx1d3J+9SpLn96p4kRgagb3Qsw+l3O5pUNj/QatmrJ7q63Ol3X56rcCOyUnoxjvxb7qnSTwOA2OAH98d3b9zbVz9UdZnraeEHVP1dxxdFR2Uz26CkjroeK0m7Jy4frmLGDvRxEKrKk0VoGDhUrNo8jP5f5V/zXMTtRU7Ol8RZ2lltFAcw+0TdbDPDosN6HcQboaLDeh68h2MZPR0iJER0RLFSiI7oESnEhbm2CDcCSOKwXhG97vzVmXv77qU7T8zG9tRoX9lGck0WBWW4afepLrrXyj36gJCO1s5bpO9Fhr03cV63s/x7NP0UR7RHbR9+m34GG432SwfESyU6yqkRW5DNp1daAMi7HY13OZodaOv+4bBOp6MGTp1OuD9flxu/ljGIjtg5XV27u+UXd7O6dpfLr/Hlxeoe0ynpwJI6L/VubJ2+HXyqPJv0NM/jx748V+Ebiw4zGKqN03ED0SH2iE963mapo86DwpBL2deRd2+XA3ZvXNV0UH4aNuml/A8zNm7reH9V53qfMhLERzf9Xjbrem+2mYeLDvFIiAhR8TG16FCRUR/boqNrH7FjtpHYOl9Thm8uOvpFZY5b628o/V1FR3/6dVknYnNq1okP4bMDA5XoiC97FtMjCnw5bdL/Iqleb489omOHDNtOIP0vHbO6LW2c1QCQOyfpVMzcrh8Mw0DmBzZ5D+OTPBl/det0XTVQ14OBTVf/3yF965rVdxWyd6QcbFP5fXqSv9IzVHoW7FNzf/n707eeAlu3Q/+XNhP7qwtb7Jw6XV9/WrZQjtIzENLwdSNfr5j6Ehv0xlXZ39rL5sWGj/7v0zZ517rW40iaWuYiz9FTE8pc2qw7oLXsHUSHn8qo3rOQsE08HeIBkWmTnUTHizMn99t0anEx/LsqU48Nc/uV640wEH6MR1Ns6zlL8eRrUxy+HntEdLqvzFe619d1jjPwmOPybPn8lO3M50v7qaH0bdmUK44M8CfCQEd0SKfrBUXjk9kiPH65ItfrNEt/h/3IoiM+BWVPQ+wAqs6j6DR8o1d3fRYgvsPQjqEzGOaOZaPBYIf0dX7fl2UdPC06UPk0zZRACvcwbiM6dODuln8w/Tg4Jjubjr5d9yFPzeut/f3Ltio6+vMmnXYSI75u4u/euEKnn9IX26U81+dM3Q417phWaXszOBV1XpVfuTL1pXnL8c0nOvTlUjmqYNhVdHjPSN+LpGaapS0+jP2M161mqmi/1cAcBvTIs9ZxqossEGwcoa1320DBmWHB3luInr7+R+6NnEo95+nbUN6+9DfqW0y+ajvxu+QJexyWPZqig0o6rEo63vqoBtC5O0rp8NMUjtSp5MeIm8fITyfNOVjqn15pD/LGozEqCLaPuy/N/nBjoyQUTNhj1FNfnPtOvxJTx9v291R/ffVK+MF4ihAdwPiIMO5ZdNSeGX3XZuI6L59YN/SYTJqH7YVB8mgcmuiY1C4MfIgWGDg0BhAddHKPKDpo8PM0+O1FR7/XYR9xwck8nGBn7Lx/BhAdiA5Ex9EzsA+hMGWa++8IGYyoAxiYhwFEx9EPOPOAQoM8ZDtPKQD2Edch25a80fZhYEoGEB2IDjwdT54BhMaUnSpxMUjDQD8DiI4nP+D0w0HDwTYwAAMwAANTMoDoQHTg6YABGIABGICBWRjoER2yvX3eTyVvW2/D814q5d4rukut7OOSd5sNSql/b5cplFTx6WKxPsOcSjUvRDRFmXIcdjGrfXyWOWzDcuGk4WtzmfQ682ntXtZJMOlP0PFsb4tp0+/aV+28/dGWxf4/ZRpDcU2b5vZ2njb97e0/ZBvOYc9jZKAhOkRYdDdtW7yQZdBzeP8y6PY6WYn0vfs1duThnsYeLBN09J0lvyeJcxeoH0t0aF627zjnAPMhnXNx7x5ER5H+BNxsG9+2189RnyGNkrX581mm//BybxvfttdrG+X48LrChqdqw47oEK9Fawt6EQxluGwOF0RIuQx6uWlcjk+8HNk7MrlBm4NV6DRuzI6SaRntauEou+/Fnd/N9Ku7WcqeLgP7bJgBqliG2a56aZZBTktwS16LJbHD/iEpb617UlqtjtB6QWx+Zbfca3eTdmeNq3F6W926u7UsAX3r1D5j6cteNGqTZBdflryUdFjWe5tVP6vyxHrMebZeHbk2p7VRnRX5s3Fpp9ZI3y/LrunYe1rpx3hsnVlmtk0/LgMe7Bjq5zLWfdP+ck7S6M2zlnP7Yy0ywu/rXAfGmyjnUp6LZci350z7hlb6d37Dv1g3Y+l7u5Vto9ijydaZ5jm1s8ama0VdbtDOfF022oxJQ8vKcXs+sdlx2qwSHVlI1BVaCotQWA3TY7in3BgueEguvEApRctUBisHgnLQC+fSvhbSafjOJXREaZBNy2Pn672IkGulY5LOrepwfDqxo/IdbuoAjacjpRfKaq8r93eQdOPgNnBPsK+5NnZeElcqo19GWfcoyeXx90pZJM+xLHdXsUNefck7eA6kn2wi6fo48oBcDxA1P72/1b7aEce8aXly2XaoM1+vOY9+T4tYZyk/PekrG+PpD9miqiu1v5ZVjnX69lx1vrB/YlbT1zoPg2W5/Psubc1wHPPk+U2CWsoWxWVVrsT5jpyFuulLX+tzg/SjgFOWCm/oAOd96SdmvD1s/nramQrIxJzJc13P/J7lfYKyDndpF9zzUBtWoqP/nYtSWATDa5gc8zsgeQpGMxfON7wczW26QwPWp6bcYcTOND3paucTIag6kZC2xFVd5xt3N1w6dLshU/i9waDQ2Sshd0ahk9Yn5urpzA425v/Be5p5z+mpvSWOYLe6nPF3slW+V+8ZSj/ZpJEPvV/zYI9/+OmVe/vulXv5Y91gc/rp+pS3cG2Oty6LeodyeMqf2lOOiZdo/zQASPxTpN99Ik553iX9zuZhccfUOICpGBJ7pfJWNvOC0Jaz2c6k/D+4P757496++qHb4asNzWCYyuXDsu3K8CiCJP2Ur+61ck+nbpJwb7e7Mp1unF2GMhvhXP69S/pBtNj2rB69HG+dTqqjaMf6d8qzsTNhdT/B71NiohId5dSILejm0ystQHp2me3tDFtxjISlDs5eV3cGeq4bHjqDHJ46B+18Jf7mAJY7v2Cv/LvsJDVtPcp1QRB5t/mnED58j1yT81inp/WV46iu9WW4dZfJVt285ns1n/mYbOI7yDLuoft6RYfa1na4KW+1Pcr0pKyjddaK36bVOr91+iOiww6kNm35vy999SBU15T2l7qL3o0qzx2PTm876xMdmQtlSo5lHedryvDNRYd9oLDpNMXgLul32kpmqJPnom5y2Wy+xP7Zg2SvyfH666U+4sNOb50V6eU2ZtPjf+xyigxUokO3tW94JfyLpDm8/0XSFig9omPKhld3vD7uqjNI6UmHkd3RYapAnlry9amzaA0MKZ5QVrlWO1DpzO510DCdTwseudZ7V+xT6cg9XdERBl9NX5/G7PsO+k6Az5tOFfk0c8eZOuGB9JNNGrZNcVe2aZVbw8r4IjdVPaZ8FdNGOqUwVmdSn/o02uVymvSjeNA69PZTHnZMP3nnAqc60BX5tfVU2Uyuyzx0y6327z1W8el1uS4kzsxOLXIk/TQluQNnHU9NZGrr9CtmfL7UttZ+NbM95S/sKv1CYiv3G2Ir2xbknuSdGkqzzgO/u943bHISNumIDmk0XlA0Ppktws1XKTrNop1T93hookMHrewqrQfp1FlsIDqCaAlxrZdf3M06D3S+AzIektQBSQPynVB3gGjfIx1bzq99p0SFhrqr84BT3WMHxr7BQDtNk5bmOdnEN/6yoy3zkMvfZaEtLtJ1VYdfDDTRXlrOjerMDw7Zbsk2VTq7p68DcExjfe0u0/RWFCTGlqPp63sA/p74EmL0loj9tex5wMscpXND3pUNOu6ynrNoKerCio4iz7+H94aU7wdz9oD0JQ+m/u30qdR3u52pBy2nW7Chdelf3FXOe9pZbZckUhpxb1AvKR9cexKD71Otz6boeKrGOL1y18LgcDq7voFtrjo4xvR789wnoHYZnKaM68mk39/OeutsF9twD2LjBBhAdJxAJfYP1P2dYf89hyNMyGNZF70D2L6Fwkm3obIO2kz2t7PeOnvyNtvErlzT5u247YLooPHz9AADMAADMAADszCA6AC0WUA7RcVOmY77iYv6o/5gYH4GEB2IDkQHDMAADMAADMzCAKID0GYBjSeK+Z8osDk2hwEYODQGEB2IDkQHDMAADMAADMzCAKID0GYB7dDUNvnhCRAGYAAG5megR3TIHiwf3PeF3YY+humiYWZxMKm4sf1XysqVT8zsksJ5QZ56wR5djTEs8qOL8ejCPq19VYwR5VNCXcynSq+Tji6c1btoUMyziS8t9BRXPkyLM8W45HO5FKb3Nc9puUIauhhXsJmE6XlTNsQSYgkGYAAGYODIGOgRHRfu2+K1Wy7ysueLF3Zr+rBHi+4a6wVHJUJKkVEPlmEgXce9R7xoicsFl6semkH46tat17JsuMT10d2sZMvsDURHEhMmrigssmjI+QtiZCBeWeEwxRnuE3HRiktt4OOsVom03+/78xpnFX/rXo2XY643bIEtYAAGYODwGWiKjstF2Cm2XN7cio64VLr3hEh4d2fZ4coXAXDrLkVILD96paqDsAyyGiZx6IAewq/dXdw75K5abryZXrVoksYl19bphPurPVlaCrISBTaPzTyo52RAdITl0LPQyfmMdmrlgzCecGAABmAABo6MgYboeO1WyWth90yxosPuRivXvHe/+oJfxC3ux0SIDqZf3J2ZbhAvRikG5LowtSDhcv5ydetulrfu5pP8PzLtUIiOHJeKjmLqQ/Lhp2Pi4G+mZorpjobo0D1Uiv0wDAiS9zRNFMNVZKW8WFES83FTCbA+UUP44at76og6ggEYgIFnriE6+oSGiI4PUVR8cDq1snhhRYdAJYKkFB3nr964t+9euvM0EKvoCCIjiImwG6MfoPX9h/u8Q6OKDruj5UaioxGXVLzEZz0qHgYrOhriwF/TEh1aLhUqOlUSw/tERxI91fWSjoiSe90RU+PnyFMNDMAADMDAETPQER3lC6FBZKx8Aa2nQzwaKizeu2/P7bsf24kO7yVYffGDbNfTkZVxEh3G2NZb4AWBOZdERBzQ/cBvBvGm6HhRekN08B/1dBTpdqdo+kRHiFfSbLwTIuLGej+KNLJdmuXmWjolGIABGICBA2SgEh1WWISBTbazD14Ney5Mr+jXLeFFUv3SpSs6ugNj9nSEgf3W3TVfJM2Da0tgtMKKtMTzkLwI5eDeFh3BA2JfFO2kMeTp8BUc0rFCZVh0xDSNIPJlQHTQYRxgh1G0L/IHozAAA1syUImOeqpEBv337pt/Z8OKjhiePBxRhKTpF/WCZNFQdlal6Aifw+bplc60R5xusAO5xNcRBHXhC9HxzNmpGS8EzNRLLTTS1Eea4gliwoaHfAbPRjc8l31MdPivcdZ5KgnRkW1XckM49oABGICBY2agEh1U5jFXJnmHXxiAARiAgUNm4OhFh3g7rJch/58/QT3kCiBvdBAwAAMwAANPhYGjFx1PpaIoJ50SDMAADMDAsTOA6KjfA+E3L0bBAAzAAAzAwKMwgOgArEcB69jVOPnniRIGYAAGpmcA0YHoQHTAAAzAAAzAwCwMIDoAbRbQeGKY/okBm2JTGICBY2PgiYuO7kJex1aB5JdOBwZgAAZg4FgY6IgOWYH0e1rk64MLS6BLhdo9WeS3LhYmxw9OVyeVgpe70x4yDIiOYwGVfB5yOyJv8AkDMLAZA03RUWzmllYdHRIdslR63n/leETHZkYCJuwEAzAAAzAAAw9nYER0iBdDlzQfEh0iOC7SzrObiA6/Q+zyNi3spUufy5Lhd8trt9YlyuOmZxK+Xt2G8NW1u1lvugtruXy5LqVul0HXMIB6OFDYEBvCAAzAAAz0MTAiOuxeLGOi47Vb+T1aNpte8SuJ6mZsZkv5IAZ0NdG8Y2sKj9vH313Jua/u5tNQ5eb7+wwwun8LL5ryoikMwAAMwAAMTMJAU3TkdzrylMnwOx3hOnkfRN4BqT0d56/euLfvXrpzU2nlYC/eiCA0vEdj+TEVTn/rcZE2catFxw/uj+/euLevfkj35mv7hUmZj/7r+kQL4dgMBmAABmAABjZjoCk6wjsd5fb1EmlZvwAACQFJREFUm4iOsCPt60lFh4gCmXpBdGxWoYCPnWAABmAABg6VgQHRIZV24b6ndzreu2/ppdJnzn/lsnhtvmIJlXy5uHCrhf3qpV35pYehz9Mh4WEKZVx0tNIJ73MMvbNR5qMVB2GHCi/5gk0YgAEYOC4GRkRHmCrRr1nKz2l16kU/ndWCi1B5mOjIO8X+7lQw7CY6njk/xaIvpd7n+ERs2HTuo7gBYK1HjrAAAzAAAzAwLQMd0TG/gc/c4kX++7w8c+tl/m3P7f7/tEab30bkH5vDAAzAAAwcPwN7EB3DguJxREed5ljF1dfr77H7OE+nAAMwAAMwAAN9DMwkOnTQfipHgOsDjnDYgAEYgIGny8AMouOpCI2HlPPpAkjnQ93DAAzAwNNhANFh3ifZ/Z2RhwiOXe59OoDSGVHXMAADMHA6DCA6jlJ0tITK6UBJB0NdwgAMwMBpMoDoQHTkFVzNirE0+NNs8NQr9QoDMLBPBjqio1yLw663MbT3ytDW9q2n8pnDPp259f2Zu49/lycjNKwdaUj7bEikDX8wAAMwMM5AU3ToYmBhRVJdBGxIdAxtbW8Hxv38f7k6c3dX+0l7vvdExiubBoGNYAAGYAAG9snAiOiYYmv79mCv63HcqQdifeY+vzhz8vtuFbwSN8twfOhiYTfrM3fzqZ2PbUTBncQT8yZeE41TynIni5ppWVYhLS924vVSBl/WWM6+8mt+kl3EHhsJJhrSPhsSacMfDMAADIwzMCI6ptjavj3Yy6ArA7dOdag3QgZbGaDl970M0Fdn7j4O4jogb3r0cagQiMeHCBjNm6Tv8x/zVZdFRI4IhaIMUaRIHFLm+h4tv8St929aznDdeGXTILARDMAADMDAPhloio5pt7Y/c+evztzbd2fu3LxLIYNuSwDooJwG4Up0/OGnENfLH0sxI/fpOxt1vL2ejh/P3M/vztzPP5Vx9Q32mjd/3uSrLov+bpVB49BrOmnJ+yfRG9I5Z+zXPUdD2mdDIm34gwEYgIFxBpqiY9qt7ecRHd1BOAuJuUWHiA311vipESNQEB3jUNJwsREMwAAMnCYDA6JDCjzF1vZ58LfCoO9JXwfllpfA3r/N/72iY8BzIOnb6R9JT/Pm0zZCoi6LXCfve7TKoHHU99jyyDWbvcdhbXuagNLxUK8wAAMwcDoMjIiOKba2twNj/r9v0NVBuTVg24F5m//nEB06tSNHFQytMmj5+srvy1V94qvxDZf5dKCkg6EuYQAGYOA0GeiIjukrOguN4UHzeK8bFBAD3pRp7XGagE7PI3bCpjAAAzCwLwaOVHRYYPYvVhAdtj74f1+NmXRhDwZg4NAZOFDR8RBw9i9CpvVgbFqeh9iMew+9oZI/GIUBGDgFBg5EdMwB06aDt15n86Rhh3y0+eX/U2iclAGOYQAGTo2BGUTHqUNzKELk1O1M+U6t86E8MA0DT48BRMdedlZ9DKHy9OClw6LOYQAGYOC4GEB07EV0HBckNGrqCwZgAAZgYAoGEB2IDjcFSMRBhwQDMAADMDDGQI/okJVIP6S/lR+Y7eqkz9yvi1/c9+ey7b3sRJuvDWGbGf5y9bu7vw9/d1fj9/zH3/7N/c8//+T+49//5P77X//m/v7v4/eMGSCcf+1++9ef3X+OCJBJ009lOHd//+df3H//7fxRBv9d8vx5+TXVy3r58VHytVm9TFW/xIO9YQAGYOAQGGiIjlJc5ExeuG+LX1wQIOduubhwq4WKDjlqhcr99reGd48iOjYRG5oHP4D+47VbpAG7G6deu91xC9ExVfq+DCJ0ZhAdO+ZZxAeiYyrGiGe7Nom9sBcMnCIDHdFxufjgwoZvZYWLZ+Pb4r1bLV67xYtwXC5+cUvv6bAiQwTJhyhOyjhqA+4sOl6UIkHEyG9/E+/HX9z/yJ8MslEEeaGi4eIlSeIoDPb+en/eeDr++ucQj4Sbe5LoqdLXtLY6JtHxzP3nP/7ifvur2qrKV0r/tfvtn39yf/9HLKPx9IyW39ujtNkmeUV0aJ1w3IQXroETGICBMQYq0SGCQYRE13AiOsTLcbm48F4OueayKTrK/VqGMrCt6OiLKwgLFQ0yuMapFxEPadB+5rJoCAN9ntIwA7KIgZ57+tJ/zHDJc8in5NFMw5iyleUPoiWLmG5dbppfRMfuttvUxlyHjWEABp4SA5XokPczhkWH33l28d79uoXoOH/1xr1999KdV2KmX3T84P747o17++qH5LEYqpQ8MAu8MugG0VGGPwvTMl5QGJHh85R/hwFcvQldz8lQPvrO/eGnV+7tu1fu5Y+bNS7xfGQPjAqNnMeQTv5dl7P+3ZevxY/n7ud3b9zPPz1v2hnRsVl99dq34p3rsCcMwMBTZ6ASHf1TI+rpsAaTqZjVBtMrxyY6sgdkmgaylejwUzvqtQnemezpyOHhvZbwuxYZIlo2KgOioym2LOP8P00bwI7YEQZgQBioRIf9KqU0UBAYrTDxjuR3OvxXLdETMgZZv6ejTGcsnnLQzZ6OhZmCkDi8B8G/31BOQQTPQhzQzbsWY+mW57+4O/kSZ/XlYQNZkWfxZqiAyJ4NSVfKrO+ulOWX66b5sgdPx3YcljxwL/aAARiAgZqBjuiQC7xwMJ/Bhnc5ui+HZk+H+WR2Q8Eh6Ty66FCh0XqR1HsUwjTGb39tDOh6z7/sS55DAH10N+vf3f362n1+kFs9CKIwvfJn9/fqnY407VK/d7J1fofKEs4hOsZtVDcofmMzGIABGOhnoCk65jLYVKJjrvyOpSPlebCno1ewlMLI5qX0dPRXtr1nk/8RHdPZchN7cw32hgEYOHUG9i46tlkc7GAr49O1W08xtdIrOKQhzic6RGxovbBOB53gwba7wfZCvVFvMHCIDOxVdByiQcgTDRUGYAAGYAAGHocBRAdPSw978RX7YT8YgAEYgIENGUB0bGgoVO/jqF7sil1hAAZg4OkwUIiO+/v/df/v//4f/rABDMAADMAADMDA5AwgOoBqcqgQrgh3GIABGICBFgOIDkQHogMGYAAGYAAGZmEA0QFos4DWUryE8SQEAzAAA0+Lgf8PfZJyW6foEicAAAAASUVORK5CYII=;" vertex="1" parent="1">
          <mxGeometry x="169.5" y="-1036" width="541" height="594" as="geometry" />
        </mxCell>
        <mxCell id="QkCvLynNDtEKA9lKMgcu-32" value="Result&lt;br&gt;&lt;span style=&quot;font-weight: normal&quot;&gt;&lt;font style=&quot;font-size: 13px&quot;&gt;All production images will use Artifactory as an npm source when building in CI.&amp;nbsp; &lt;br&gt;Local development is unchanged but developers can use Artifactory with a personal .npmrc file.&lt;/font&gt;&lt;/span&gt;" style="text;html=1;strokeColor=none;fillColor=none;align=left;verticalAlign=middle;whiteSpace=wrap;rounded=0;fontStyle=1;fontSize=20;" vertex="1" parent="1">
          <mxGeometry x="1110" y="-430" width="530" height="40" as="geometry" />
        </mxCell>
      </root>
    </mxGraphModel>
  </diagram>
</mxfile>
